<?xml version="1.0" encoding="UTF-8"?>
<svg id="Calque_2" data-name="Calque 2" xmlns="http://www.w3.org/2000/svg" viewBox="0 0 446.94 95.6">
  <defs>
    <style>
      .cls-1 {
        fill: #de6c49;
      }

      .cls-2 {
        fill: #69322d;
      }
    </style>
  </defs>
  <g>
    <path class="cls-2" d="M95.61,19.18c1.54,1.15,2.31,2.91,2.31,5.26,0,.73-.41,2.95-1.23,6.67-.82,3.71-2.23,8.57-4.22,14.59-1.21,3.61-2.21,7.07-3,10.39-.79,3.32-1.67,6.27-2.64,8.86-.97,2.59-2.19,4.65-3.66,6.19-1.47,1.54-3.48,2.31-6.04,2.31-2.41,0-4.38-.54-5.92-1.62-1.54-1.07-2.78-2.41-3.72-4.01s-1.67-3.34-2.19-5.22-.96-3.62-1.32-5.22c-.36-1.6-.76-2.93-1.17-4.01-.42-1.07-.97-1.61-1.65-1.61s-1.23.53-1.65,1.6c-.42,1.07-.84,2.41-1.26,4-.42,1.59-.91,3.33-1.46,5.21s-1.29,3.62-2.21,5.21c-.92,1.59-2.07,2.93-3.46,3.99-1.39,1.07-3.13,1.6-5.22,1.6-2.46,0-4.42-.6-5.88-1.77-1.46-1.18-2.7-2.95-3.72-5.3-1.02-2.36-1.98-5.29-2.89-8.79-.91-3.5-2.07-7.59-3.47-12.25-.42-1.31-.94-3.01-1.56-5.1-.63-2.09-1.25-4.2-1.87-6.32-.62-2.12-1.16-4.05-1.6-5.81-.44-1.75-.66-2.92-.66-3.49,0-1.2.29-2.26.87-3.18s1.3-1.69,2.16-2.31c.86-.63,1.82-1.09,2.86-1.41s2.07-.47,3.06-.47c2.14,0,3.89.44,5.25,1.3,1.36.86,2.45,1.95,3.29,3.26.83,1.31,1.46,2.71,1.88,4.2s.77,2.89,1.05,4.2.56,2.39.82,3.26c.26.86.65,1.3,1.17,1.3.68,0,1.22-.43,1.61-1.29.39-.86.79-1.95,1.18-3.25s.83-2.73,1.3-4.27c.47-1.54,1.15-2.97,2.05-4.27.89-1.3,2.03-2.39,3.42-3.25,1.39-.86,3.18-1.29,5.38-1.29s3.91.46,5.29,1.38c1.38.92,2.51,2.06,3.37,3.42.86,1.36,1.52,2.83,1.99,4.4.47,1.57.88,3.04,1.25,4.4.36,1.36.73,2.5,1.09,3.41.37.92.86,1.38,1.49,1.38.68,0,1.16-.44,1.46-1.33.29-.89.56-2,.83-3.33.26-1.33.58-2.78.95-4.35.37-1.57.97-3.02,1.81-4.35.84-1.33,1.95-2.44,3.34-3.33,1.39-.89,3.23-1.33,5.53-1.33s4.07.58,5.61,1.74Z"/>
    <path class="cls-2" d="M134.81,17.64c3.56,1.24,6.73,3.08,9.52,5.55,2.79,2.46,5.05,5.54,6.77,9.23,1.72,3.69,2.58,7.99,2.57,12.91,0,4.34-.76,8.31-2.26,11.92-1.5,3.61-3.55,6.7-6.17,9.29s-5.73,4.61-9.35,6.06-7.53,2.18-11.77,2.18-8.29-.72-12-2.14c-3.71-1.42-6.94-3.41-9.68-5.98-2.74-2.57-4.89-5.64-6.46-9.23s-2.34-7.55-2.33-11.89.77-8.59,2.29-12.27c1.52-3.69,3.63-6.82,6.33-9.41,2.7-2.58,5.9-4.58,9.62-5.99,3.72-1.41,7.74-2.11,12.08-2.1,3.66,0,7.27.63,10.82,1.86ZM119.17,34.28c-1.36.58-2.53,1.38-3.5,2.43s-1.72,2.27-2.24,3.68c-.52,1.41-.79,2.96-.79,4.63,0,1.88.28,3.57.86,5.06.57,1.49,1.37,2.75,2.39,3.77,1.02,1.02,2.21,1.81,3.57,2.36s2.8.83,4.31.83,3.02-.27,4.35-.82c1.34-.55,2.49-1.33,3.46-2.35.97-1.02,1.74-2.25,2.32-3.68.58-1.44.87-3.02.87-4.75s-.26-3.32-.78-4.79c-.52-1.46-1.25-2.73-2.19-3.81-.94-1.07-2.1-1.91-3.48-2.52-1.39-.6-2.94-.91-4.67-.91-1.62,0-3.11.28-4.48.85Z"/>
    <path class="cls-2" d="M190.98,17.73c3.56,1.24,6.73,3.08,9.52,5.55,2.79,2.46,5.05,5.54,6.77,9.23,1.72,3.69,2.58,7.99,2.57,12.91,0,4.34-.76,8.31-2.26,11.92s-3.55,6.7-6.17,9.29-5.73,4.61-9.35,6.06-7.53,2.18-11.77,2.18-8.29-.72-12-2.14-6.94-3.41-9.68-5.98c-2.74-2.57-4.89-5.64-6.46-9.23s-2.34-7.55-2.33-11.89.77-8.59,2.29-12.27c1.52-3.69,3.63-6.82,6.33-9.41,2.7-2.58,5.9-4.58,9.62-5.99,3.72-1.41,7.74-2.11,12.08-2.1,3.66,0,7.27.63,10.82,1.86ZM175.34,34.38c-1.36.58-2.53,1.38-3.5,2.43s-1.72,2.27-2.24,3.68c-.52,1.41-.79,2.96-.79,4.63,0,1.88.28,3.57.86,5.06.57,1.49,1.37,2.75,2.39,3.77,1.02,1.02,2.21,1.81,3.57,2.36s2.8.83,4.31.83,3.02-.27,4.35-.82c1.34-.55,2.49-1.33,3.46-2.35.97-1.02,1.74-2.25,2.32-3.68.58-1.44.87-3.02.87-4.75s-.26-3.32-.78-4.79c-.52-1.46-1.25-2.73-2.19-3.81-.94-1.07-2.1-1.91-3.48-2.52-1.39-.6-2.94-.91-4.67-.91-1.62,0-3.11.28-4.48.85Z"/>
    <path class="cls-2" d="M243.98,18.13c1.28.5,2.32,1.16,3.14,1.97.81.81,1.4,1.74,1.76,2.79.36,1.05.54,2.12.54,3.22,0,3.25-1.02,5.57-3.03,6.98-2.02,1.41-5.2,2.11-9.54,2.1-1.36,0-2.46.02-3.29.07-.84.05-1.48.12-1.92.19-.44.08-.73.17-.86.27-.13.1-.2.21-.2.31,0,.68,1.04,1.02,3.14,1.03,1.88,0,3.67.11,5.37.32s3.18.62,4.43,1.22c1.26.6,2.26,1.46,3.02,2.56.76,1.1,1.13,2.57,1.13,4.4s-.28,3.43-.83,4.63c-.55,1.2-1.3,2.14-2.24,2.82-.94.68-2.03,1.15-3.26,1.41-1.23.26-2.53.39-3.89.38-1.88,0-3.66.05-5.33.15-1.67.1-2.75.39-3.22.86-.32.31-.58.98-.79,2-.21,1.02-.32,2.13-.32,3.33,0,4.13-.65,7.26-1.94,9.37s-3.65,3.17-7.11,3.17c-1.88,0-3.43-.29-4.63-.87-1.2-.58-2.16-1.4-2.86-2.48-.7-1.07-1.19-2.37-1.44-3.89-.26-1.52-.39-3.24-.39-5.18l.05-31.46c0-2.09.18-3.92.52-5.49.34-1.57.92-2.87,1.73-3.92.81-1.04,1.9-1.81,3.26-2.31s3.06-.74,5.1-.74l19.3.03c1.78,0,3.31.25,4.59.75Z"/>
  </g>
  <g>
    <path class="cls-1" d="M257.99,19.57l27.56.05c16.23.03,28.42,9.77,28.39,28.24s-12.26,28.02-28.49,27.99l-27.56-.05.09-56.23ZM283.47,61.38c8.84.01,12.7-5.28,12.72-13.64.01-8.35-3.83-13.66-13.31-13.68h-6.51s-.04,27.3-.04,27.3h7.15Z"/>
    <path class="cls-1" d="M328.89,19.68l30.69.05,14.05,56.26-18.4-.03-2.16-8.84-17.84-.03-2.18,8.83-18.4-.03,14.23-56.21ZM338.55,53.28l11.17.02-4.63-19.13h-1.85s-4.69,19.11-4.69,19.11Z"/>
    <path class="cls-1" d="M388.73,56.09l-21.47-36.35,21.21.03,9.05,17.37h.96s9.11-17.33,9.11-17.33l21.21.03-21.59,36.28-.03,19.92-18.48-.03.03-19.92Z"/>
  </g>
</svg>