<?xml version="1.0" encoding="UTF-8"?>
<svg id="Calque_2" data-name="Calque 2" xmlns="http://www.w3.org/2000/svg" viewBox="0 0 705.06 145.79">
  <g>
    <path d="M155.73,26.34c2.71,1.89,4.07,4.76,4.07,8.63,0,1.2-.71,4.85-2.14,10.94-1.43,6.1-3.89,14.08-7.38,23.95-2.12,5.92-3.87,11.61-5.25,17.06-1.38,5.45-2.92,10.3-4.62,14.55-1.7,4.25-3.85,7.64-6.42,10.17-2.58,2.53-6.12,3.8-10.62,3.8-4.24,0-7.71-.88-10.42-2.64-2.71-1.76-4.9-3.95-6.56-6.57-1.66-2.62-2.95-5.47-3.87-8.56-.92-3.09-1.7-5.94-2.34-8.56-.65-2.62-1.34-4.81-2.07-6.57-.74-1.76-1.7-2.64-2.9-2.64s-2.16.88-2.9,2.64c-.74,1.76-1.47,3.95-2.2,6.57-.74,2.62-1.59,5.47-2.56,8.56-.97,3.09-2.25,5.95-3.87,8.56-1.61,2.62-3.63,4.81-6.07,6.57-2.44,1.76-5.5,2.64-9.18,2.64-4.33,0-7.77-.97-10.35-2.9-2.58-1.93-4.77-4.83-6.56-8.69-1.8-3.87-3.5-8.67-5.11-14.42-1.61-5.75-3.66-12.44-6.14-20.09-.74-2.14-1.66-4.94-2.76-8.37-1.11-3.44-2.21-6.89-3.32-10.36-1.1-3.48-2.05-6.65-2.83-9.53-.78-2.87-1.17-4.78-1.17-5.73,0-1.97.51-3.71,1.52-5.21s2.28-2.77,3.8-3.8c1.52-1.03,3.2-1.8,5.04-2.32s3.63-.77,5.39-.77c3.77,0,6.85.71,9.25,2.12,2.39,1.41,4.32,3.2,5.8,5.34,1.47,2.15,2.58,4.44,3.31,6.89s1.36,4.74,1.86,6.89.99,3.93,1.45,5.34c.46,1.41,1.15,2.12,2.07,2.12,1.19,0,2.14-.71,2.83-2.12.69-1.42,1.38-3.2,2.07-5.34.69-2.15,1.45-4.49,2.28-7.02.83-2.53,2.02-4.87,3.59-7.02,1.56-2.14,3.56-3.93,6-5.34,2.44-1.42,5.59-2.12,9.45-2.12s6.87.75,9.31,2.25c2.44,1.5,4.42,3.37,5.94,5.6,1.52,2.24,2.69,4.64,3.52,7.21.83,2.58,1.56,4.98,2.21,7.21.64,2.23,1.29,4.1,1.93,5.6.65,1.5,1.52,2.25,2.62,2.25,1.19,0,2.05-.73,2.56-2.19.5-1.46.99-3.28,1.45-5.47.46-2.19,1.01-4.57,1.66-7.15.64-2.57,1.7-4.95,3.17-7.14,1.47-2.19,3.43-4.01,5.87-5.47,2.44-1.46,5.68-2.19,9.73-2.19s7.15.95,9.87,2.83Z"/>
    <path d="M224.67,23.7c6.26,2.02,11.85,5.04,16.77,9.08,4.92,4.03,8.9,9.08,11.94,15.13,3.04,6.05,4.55,13.11,4.55,21.18,0,7.13-1.31,13.65-3.93,19.57-2.62,5.92-6.23,11.01-10.84,15.26s-10.08,7.58-16.42,9.98c-6.35,2.4-13.25,3.61-20.7,3.61s-14.59-1.16-21.12-3.48c-6.53-2.32-12.21-5.58-17.05-9.79-4.83-4.21-8.63-9.25-11.38-15.13s-4.14-12.38-4.14-19.51,1.33-14.1,4-20.15c2.67-6.05,6.37-11.2,11.11-15.45,4.74-4.25,10.37-7.53,16.91-9.85,6.53-2.32,13.61-3.48,21.25-3.48,6.44,0,12.79,1.01,19.05,3.03ZM197.21,51.07c-2.39.95-4.44,2.28-6.14,3.99s-3.01,3.73-3.93,6.05c-.92,2.32-1.38,4.85-1.38,7.6,0,3.09.51,5.86,1.52,8.3,1.01,2.45,2.42,4.51,4.21,6.18,1.8,1.67,3.89,2.96,6.28,3.86s4.92,1.35,7.59,1.35,5.31-.45,7.66-1.35c2.35-.9,4.37-2.19,6.07-3.86,1.7-1.68,3.06-3.69,4.07-6.05,1.01-2.36,1.52-4.96,1.52-7.79s-.46-5.45-1.38-7.85c-.92-2.4-2.2-4.48-3.87-6.24-1.66-1.76-3.7-3.13-6.14-4.12-2.44-.98-5.18-1.48-8.21-1.48-2.85,0-5.48.47-7.87,1.41Z"/>
    <path d="M323.5,23.7c6.26,2.02,11.85,5.04,16.77,9.08,4.92,4.03,8.9,9.08,11.94,15.13,3.04,6.05,4.55,13.11,4.55,21.18,0,7.13-1.31,13.65-3.93,19.57-2.62,5.92-6.23,11.01-10.84,15.26-4.6,4.25-10.08,7.58-16.42,9.98s-13.25,3.61-20.7,3.61-14.59-1.16-21.12-3.48-12.21-5.58-17.05-9.79c-4.83-4.21-8.63-9.25-11.38-15.13-2.76-5.88-4.14-12.38-4.14-19.51s1.33-14.1,4-20.15c2.67-6.05,6.37-11.2,11.11-15.45,4.74-4.25,10.37-7.53,16.91-9.85,6.53-2.32,13.61-3.48,21.25-3.48,6.44,0,12.79,1.01,19.05,3.03ZM296.03,51.07c-2.39.95-4.44,2.28-6.14,3.99s-3.01,3.73-3.93,6.05c-.92,2.32-1.38,4.85-1.38,7.6,0,3.09.51,5.86,1.52,8.3,1.01,2.45,2.42,4.51,4.21,6.18,1.8,1.67,3.89,2.96,6.28,3.86,2.39.9,4.92,1.35,7.59,1.35s5.31-.45,7.66-1.35c2.35-.9,4.37-2.19,6.07-3.86,1.7-1.68,3.06-3.69,4.07-6.05,1.01-2.36,1.52-4.96,1.52-7.79s-.46-5.45-1.38-7.85c-.92-2.4-2.2-4.48-3.87-6.24-1.66-1.76-3.7-3.13-6.14-4.12-2.44-.98-5.18-1.48-8.21-1.48-2.85,0-5.48.47-7.87,1.41Z"/>
    <path d="M416.73,24.22c2.25.82,4.09,1.89,5.52,3.22,1.42,1.33,2.46,2.85,3.1,4.57.64,1.72.96,3.48.96,5.28,0,5.33-1.77,9.14-5.31,11.46-3.54,2.32-9.14,3.48-16.77,3.48-2.39,0-4.33.04-5.8.13-1.47.09-2.6.19-3.38.32-.78.13-1.29.28-1.52.45-.23.17-.35.34-.35.51,0,1.12,1.84,1.68,5.52,1.68,3.31,0,6.46.18,9.45.52s5.59,1.01,7.8,1.99c2.21.99,3.98,2.38,5.31,4.19,1.33,1.81,2,4.21,2,7.21s-.49,5.62-1.45,7.59c-.97,1.98-2.28,3.52-3.94,4.64-1.66,1.11-3.56,1.89-5.72,2.32-2.17.43-4.44.64-6.84.64-3.31,0-6.44.09-9.38.26-2.95.18-4.83.65-5.66,1.42-.55.51-1.01,1.61-1.38,3.28-.37,1.68-.55,3.5-.55,5.47,0,6.79-1.13,11.91-3.38,15.39-2.25,3.48-6.42,5.21-12.49,5.21-3.31,0-6.03-.47-8.14-1.41-2.12-.95-3.8-2.3-5.04-4.06-1.24-1.76-2.09-3.88-2.55-6.37-.46-2.49-.69-5.32-.69-8.5v-51.64c0-3.43.3-6.44.9-9.01.6-2.57,1.61-4.72,3.04-6.44,1.42-1.72,3.33-2.98,5.72-3.8,2.39-.82,5.39-1.22,8.97-1.22h33.95c3.13,0,5.82.4,8.08,1.22Z"/>
  </g>
  <path d="M446.67,26.49c0-1.79,1.55-3.24,3.47-3.24h36.41c23.49,0,41.16,15.95,41.16,46.28s-17.67,46.01-41.16,46.01h-36.41c-1.92,0-3.47-1.45-3.47-3.24V26.49ZM483.64,91.81c12.79,0,18.37-8.7,18.37-22.41s-5.58-22.41-19.3-22.41h-.91c-4.7,0-8.51,3.55-8.51,7.94v28.95c0,4.38,3.81,7.94,8.51,7.94h1.84Z"/>
  <path d="M612.73,116.76c.36.84-.12,1.81-1.1,1.81h-24.08c-1.1,0-2.07-.7-2.55-1.81l-2.91-11.67c-.43-1.72-2.05-2.94-3.92-2.94h-15.3c-2.57,0-4.8,1.67-5.39,4.04l-2.64,10.57c-.49,1.11-1.46,1.81-2.55,1.81h-24.08c-.97,0-1.46-.97-1.1-1.81l27.49-92.39c.36-.84,1.7-1.81,2.92-1.81h24.81c1.22,0,2.56.97,2.92,1.81l27.49,92.39ZM568.62,61.03l-4.89,19.68c-.2.79.44,1.55,1.29,1.55h9.78c.86,0,1.49-.76,1.29-1.55l-4.89-19.68c-.32-1.29-2.27-1.29-2.59,0Z"/>
  <path d="M676.34,21.29c1.1,0,1.95.99,1.34,2.26l-26.18,54.64c-.46.97-.7,2.02-.7,3.09v35.32c0,.99-.85,1.97-1.82,1.97h-21.41c-.97,0-1.82-.99-1.82-1.97v-35.54c0-.92-.21-1.83-.61-2.67l-26.27-54.84c-.61-1.27.24-2.26,1.34-2.26h25.3c1.22,0,2.31.99,2.8,2.26l7.86,20.01c.73,1.85,3.49,1.85,4.22,0l7.86-20.01c.49-1.27,1.58-2.26,2.8-2.26h25.3Z"/>
</svg>