<?xml version="1.0" encoding="UTF-8"?>
<svg id="Calque_2" data-name="Calque 2" xmlns="http://www.w3.org/2000/svg" viewBox="0 0 377.63 248.56">
  <defs>
    <style>
      .cls-1 {
        fill: #fff;
      }
    </style>
  </defs>
  <path class="cls-1" d="M260.96,225.86c.35.84-.12,1.81-1.04,1.81h-22.87c-1.04,0-1.96-.7-2.42-1.81l-2.77-11.69c-.41-1.73-1.95-2.95-3.73-2.95h-14.53c-2.44,0-4.55,1.68-5.12,4.05l-2.51,10.59c-.46,1.12-1.38,1.81-2.42,1.81h-22.87c-.92,0-1.39-.98-1.04-1.81l26.1-92.59c.35-.84,1.62-1.81,2.77-1.81h23.56c1.16,0,2.43.98,2.77,1.81l26.1,92.59ZM219.07,170l-4.64,19.73c-.19.79.41,1.55,1.23,1.55h9.29c.81,0,1.41-.76,1.23-1.55l-4.64-19.73c-.31-1.3-2.15-1.3-2.46,0Z"/>
  <path class="cls-1" d="M321.36,130.18c1.04,0,1.85.99,1.27,2.26l-24.86,54.76c-.44.97-.67,2.03-.67,3.09v35.4c0,.99-.81,1.98-1.73,1.98h-20.33c-.92,0-1.73-.99-1.73-1.98v-35.62c0-.92-.2-1.84-.58-2.68l-24.95-54.96c-.58-1.27.23-2.26,1.27-2.26h24.03c1.16,0,2.19.99,2.66,2.26l7.47,20.05c.69,1.86,3.32,1.86,4.01,0l7.47-20.05c.46-1.27,1.5-2.26,2.66-2.26h24.03Z"/>
  <path class="cls-1" d="M133.64,26.74c2.43,1.76,3.82,4.64,4.16,8.64.11,1.25-.17,5.07-.81,11.48-.65,6.41-2,14.85-4.04,25.31-1.24,6.28-2.19,12.29-2.86,18.03-.67,5.74-1.52,10.87-2.57,15.39-1.04,4.52-2.53,8.18-4.45,10.98-1.92,2.8-4.77,4.37-8.52,4.69-3.53.3-6.5-.36-8.92-1.99-2.42-1.63-4.43-3.73-6.05-6.33-1.61-2.59-2.94-5.45-3.98-8.58-1.04-3.13-1.95-6.03-2.71-8.69-.77-2.66-1.54-4.88-2.31-6.65-.77-1.77-1.65-2.61-2.65-2.52s-1.73,1.07-2.18,2.94c-.46,1.87-.88,4.19-1.26,6.95-.38,2.76-.84,5.78-1.37,9.04-.53,3.27-1.35,6.31-2.46,9.14-1.11,2.83-2.61,5.23-4.48,7.23-1.88,2-4.35,3.12-7.42,3.39-3.61.31-6.57-.44-8.89-2.26-2.32-1.81-4.4-4.66-6.23-8.53s-3.68-8.72-5.53-14.56c-1.85-5.83-4.15-12.62-6.9-20.35-.8-2.17-1.82-4.99-3.04-8.46-1.22-3.47-2.45-6.97-3.68-10.49-1.23-3.52-2.29-6.74-3.2-9.66-.91-2.92-1.4-4.87-1.49-5.85-.17-2.04.09-3.88.8-5.5.71-1.62,1.65-3.03,2.83-4.2,1.17-1.17,2.51-2.09,3.99-2.76,1.49-.66,2.96-1.06,4.42-1.18,3.14-.27,5.78.24,7.9,1.54,2.12,1.3,3.89,3,5.31,5.12,1.42,2.12,2.54,4.41,3.37,6.89.83,2.48,1.55,4.81,2.16,7,.61,2.18,1.17,3.99,1.68,5.43.51,1.43,1.15,2.12,1.91,2.05,1-.09,1.72-.89,2.17-2.4.45-1.51.87-3.41,1.25-5.68.39-2.27.81-4.74,1.28-7.42.47-2.68,1.26-5.18,2.37-7.52,1.11-2.33,2.63-4.32,4.53-5.96,1.91-1.64,4.47-2.6,7.69-2.87s5.8.29,7.97,1.67c2.17,1.38,3.98,3.17,5.44,5.37,1.46,2.2,2.65,4.61,3.57,7.21.92,2.61,1.74,5.04,2.48,7.3.73,2.27,1.44,4.15,2.11,5.66.67,1.51,1.47,2.22,2.39,2.14,1-.09,1.64-.9,1.94-2.45.29-1.55.53-3.47.72-5.77.19-2.3.44-4.8.75-7.51.31-2.71.98-5.25,2.01-7.62,1.03-2.37,2.5-4.4,4.41-6.08,1.9-1.68,4.54-2.67,7.92-2.96,3.22-.28,6.05.47,8.48,2.23Z"/>
  <path class="cls-1" d="M188.71,29.66c5.24,2.1,9.91,5.25,14.03,9.45,4.12,4.2,7.45,9.45,9.99,15.75,2.54,6.3,3.81,13.65,3.81,22.05,0,7.42-1.1,14.21-3.29,20.37-2.19,6.17-5.22,11.46-9.07,15.88-3.85,4.42-8.43,7.89-13.74,10.39s-11.09,3.75-17.32,3.75-12.2-1.21-17.67-3.62c-5.47-2.41-10.22-5.81-14.26-10.19-4.04-4.38-7.22-9.63-9.53-15.75-2.31-6.12-3.47-12.89-3.47-20.31s1.12-14.68,3.35-20.98c2.23-6.3,5.33-11.66,9.3-16.08,3.96-4.42,8.68-7.84,14.15-10.25,5.47-2.41,11.39-3.62,17.79-3.62,5.39,0,10.7,1.05,15.94,3.15ZM165.73,58.14c-2,.98-3.72,2.37-5.14,4.16-1.43,1.79-2.52,3.89-3.29,6.3-.77,2.41-1.16,5.05-1.16,7.91,0,3.22.42,6.1,1.27,8.65.85,2.55,2.02,4.69,3.52,6.43s3.25,3.08,5.25,4.02c2,.94,4.12,1.41,6.35,1.41s4.45-.47,6.41-1.41,3.66-2.28,5.08-4.02c1.42-1.74,2.56-3.84,3.41-6.3.85-2.46,1.27-5.16,1.27-8.11s-.39-5.67-1.16-8.18c-.77-2.5-1.85-4.67-3.23-6.5-1.39-1.83-3.1-3.26-5.14-4.29-2.04-1.03-4.33-1.54-6.87-1.54-2.39,0-4.58.49-6.58,1.47Z"/>
  <path class="cls-1" d="M265.61,21.47c5.24,2.18,9.91,5.45,14.03,9.81,4.12,4.36,7.45,9.81,9.99,16.36,2.54,6.54,3.81,14.18,3.81,22.9,0,7.7-1.1,14.75-3.29,21.16-2.19,6.4-5.22,11.9-9.07,16.49-3.85,4.59-8.43,8.19-13.74,10.79-5.31,2.6-11.09,3.9-17.32,3.9s-12.2-1.25-17.67-3.76c-5.47-2.51-10.22-6.03-14.26-10.58-4.04-4.55-7.22-10-9.53-16.36-2.31-6.35-3.47-13.38-3.47-21.09s1.12-15.24,3.35-21.78c2.23-6.54,5.33-12.11,9.3-16.7,3.96-4.59,8.68-8.14,14.15-10.65,5.47-2.51,11.39-3.76,17.79-3.76,5.39,0,10.7,1.09,15.94,3.27ZM242.63,51.05c-2,1.02-3.72,2.46-5.14,4.31-1.43,1.86-2.52,4.04-3.29,6.54-.77,2.51-1.16,5.24-1.16,8.21,0,3.34.42,6.33,1.27,8.98.85,2.64,2.02,4.87,3.52,6.68s3.25,3.2,5.25,4.18c2,.97,4.12,1.46,6.35,1.46s4.45-.49,6.41-1.46,3.66-2.37,5.08-4.18c1.42-1.81,2.56-3.99,3.41-6.54.85-2.55,1.27-5.36,1.27-8.42s-.39-5.89-1.16-8.49c-.77-2.6-1.85-4.85-3.23-6.75-1.39-1.9-3.1-3.39-5.14-4.45-2.04-1.07-4.33-1.6-6.87-1.6-2.39,0-4.58.51-6.58,1.53Z"/>
  <path class="cls-1" d="M343.58,30.82c1.8.98,3.23,2.18,4.29,3.6,1.06,1.42,1.78,2.99,2.15,4.72.37,1.73.47,3.48.3,5.24-.51,5.21-2.35,8.79-5.52,10.77-3.17,1.98-7.94,2.66-14.3,2.04-1.99-.19-3.61-.31-4.84-.34-1.24-.04-2.18-.02-2.85.04-.66.06-1.1.17-1.31.32-.21.15-.32.31-.34.48-.11,1.09,1.37,1.79,4.44,2.09,2.76.27,5.37.69,7.82,1.27,2.46.58,4.56,1.44,6.3,2.58,1.74,1.15,3.09,2.65,4.03,4.52.94,1.87,1.27,4.28.98,7.21s-.94,5.46-1.93,7.31c-.99,1.85-2.23,3.26-3.72,4.21-1.49.96-3.15,1.56-4.99,1.8-1.84.25-3.76.27-5.75.07-2.76-.27-5.37-.44-7.84-.51-2.47-.07-4.08.24-4.85.92-.51.46-1,1.49-1.46,3.1-.47,1.61-.79,3.38-.98,5.31-.65,6.63-2.08,11.55-4.28,14.77-2.21,3.22-5.84,4.58-10.9,4.08-2.76-.27-4.97-.95-6.65-2.05-1.67-1.1-2.94-2.55-3.81-4.38-.87-1.82-1.37-3.97-1.52-6.44-.15-2.47-.07-5.26.24-8.36l4.93-50.48c.33-3.36.86-6.27,1.61-8.74.74-2.47,1.79-4.48,3.14-6.05,1.35-1.56,3.06-2.64,5.13-3.25,2.07-.6,4.6-.76,7.59-.47l28.28,2.76c2.6.25,4.81.87,6.61,1.85Z"/>
  <path class="cls-1" d="M98.87,176.86c-13.33-5.49-27.26-7.92-41.13-11.5-5.65-1.46-10.61-3.87-15.87.13s-6.46,11.01-7.29,17.31c-1.59,12.04.24,23.73,8.29,33.22,7.54,8.88,19.1,13.37,30.55,13.88,14.98.67,33.55-1.7,41.45-16.23,3.08-5.65-5.55-10.71-8.63-5.05-3.41,6.26-9.71,9.09-16.48,10.33s-14.64,1.68-21.48.36c-10.63-2.05-20.01-8.91-23.17-19.56-1.73-5.84-1.33-11.8-.4-17.74.34-2.21.76-7.57,3.23-8.66,1.91-.85,5.17,1.14,7.16,1.66,13.86,3.64,27.78,6,41.13,11.5,5.94,2.45,8.54-7.22,2.66-9.64h0Z"/>
  <path class="cls-1" d="M76.51,170.42c6.97-13.95,19.98-24.13,35.06-27.99,17.4-4.45,34.36,2.3,46.36,15.22,9.17,9.87,6.77,26.59,6.29,38.97-.22,5.67.62,12.27-4.16,16.37-4.5,3.86-11.18,4.25-16.82,3.85-2.16-.15-7.58-.18-9.09-1.98.03.03.08-3.23.07-3.96-.06-10.32-.27-20.54.12-30.86.24-6.44-9.76-6.43-10,0-.41,10.96-.4,21.85-.11,32.81.18,7.08,3.45,11.05,10.36,12.71,14.42,3.46,34.69.88,38.73-16.18,1.83-7.72,1.22-16.91,1.27-24.81.06-8.7-.33-18.02-4-26.06s-12.28-14.97-19.93-19.55c-8.91-5.33-19.37-8.57-29.82-8.03-21.98,1.13-43.12,14.76-52.96,34.46-2.87,5.74,5.75,10.81,8.63,5.05h0Z"/>
  <path class="cls-1" d="M101.14,171.28c7.13,0,7.14-11.08,0-11.08s-7.14,11.08,0,11.08h0Z"/>
  <path class="cls-1" d="M90.52,168.68c4.75,0,4.76-7.38,0-7.38s-4.76,7.38,0,7.38h0Z"/>
  <path class="cls-1" d="M44.4,175.75c1.18,2.02.74,4.62-.1,6.78-.9,2.3-1.69,3.33-3.19,3.54-3.57.51-5.53,5.05-4.66,8.21,1.06,3.84,4.63,5.17,8.21,4.66,12.46-1.76,16.78-20.5,11.26-29.92-4.34-7.41-15.88-.7-11.53,6.74h0Z"/>
</svg>