<?xml version="1.0" encoding="UTF-8"?>
<svg id="Calque_2" data-name="Calque 2" xmlns="http://www.w3.org/2000/svg" viewBox="0 0 408.7 358.51">
  <defs>
    <style>
      .cls-1, .cls-2 {
        font-family: Poppins-Regular, Poppins;
        font-size: 24.72px;
      }

      .cls-1, .cls-3, .cls-4 {
        fill: #69322d;
      }

      .cls-2, .cls-5, .cls-6, .cls-7 {
        fill: #26422b;
      }

      .cls-3, .cls-6 {
        font-family: Poppins-Bold, Poppins;
        font-size: 22.53px;
        font-weight: 700;
      }

      .cls-4, .cls-7 {
        font-family: DistroBlack, 'Distro Black';
        font-size: 38.62px;
      }
    </style>
  </defs>
  <text class="cls-4" transform="translate(102.42 -337.39) rotate(-40.89)"><tspan x="0" y="0"> </tspan></text>
  <text class="cls-4" transform="translate(109.45 -343.5) rotate(-37.26)"><tspan x="0" y="0"> </tspan></text>
  <text class="cls-4" transform="translate(116.9 -349.19) rotate(-33.57)"><tspan x="0" y="0"> </tspan></text>
  <text class="cls-4" transform="translate(124.68 -354.37) rotate(-29.86)"><tspan x="0" y="0"> </tspan></text>
  <text class="cls-4" transform="translate(131.89 -359.68) rotate(-21.31)"><tspan x="0" y="0">W</tspan></text>
  <text class="cls-4" transform="translate(162.95 -371.58) rotate(-9.57)"><tspan x="0" y="0">O</tspan></text>
  <text class="cls-4" transform="translate(189.08 -376.09) rotate(.88)"><tspan x="0" y="0">O</tspan></text>
  <text class="cls-4" transform="translate(215.74 -375.44) rotate(9.76)"><tspan x="0" y="0">F</tspan></text>
  <text class="cls-4" transform="translate(234.25 -372.05) rotate(15.28)"><tspan x="0" y="0"> </tspan></text>
  <text class="cls-4" transform="translate(243.12 -370.15) rotate(22)"><tspan x="0" y="0">D</tspan></text>
  <text class="cls-4" transform="translate(265.17 -361.37) rotate(31.26)"><tspan x="0" y="0">A</tspan></text>
  <text class="cls-4" transform="translate(281.48 -351.86) rotate(38.51)"><tspan x="0" y="0">Y</tspan></text>
  <text class="cls-4" transform="translate(299.02 -337.47) rotate(44.81)"><tspan x="0" y="0"> </tspan></text>
  <text class="cls-1" transform="translate(305.69 -330.81) rotate(47.89)"><tspan x="0" y="0"> </tspan></text>
  <text class="cls-1" transform="translate(309.98 -326.12) rotate(51.02)"><tspan x="0" y="0"> </tspan></text>
  <text class="cls-1" transform="translate(313.96 -321.27) rotate(52.81)"><tspan x="0" y="0"> </tspan></text>
  <text class="cls-1" transform="translate(317.78 -316.25) rotate(55.29)"><tspan x="0" y="0"> </tspan></text>
  <text class="cls-1" transform="translate(321.38 -311.06) rotate(57.78)"><tspan x="0" y="0"> </tspan></text>
  <text class="cls-1" transform="translate(324.75 -305.72) rotate(60.29)"><tspan x="0" y="0"> </tspan></text>
  <text class="cls-1" transform="translate(327.88 -300.25) rotate(62.81)"><tspan x="0" y="0"> </tspan></text>
  <text class="cls-1" transform="translate(330.77 -294.63) rotate(65.33)"><tspan x="0" y="0"> </tspan></text>
  <text class="cls-1" transform="translate(333.42 -288.89) rotate(67.85)"><tspan x="0" y="0"> </tspan></text>
  <text class="cls-3" transform="translate(335.84 -283.21) rotate(71.43)"><tspan x="0" y="0">E</tspan></text>
  <text class="cls-3" transform="translate(339.65 -272.27) rotate(76.89)"><tspan x="0" y="0">V</tspan></text>
  <text class="cls-3" transform="translate(343.16 -256.86) rotate(82.32)"><tspan x="0" y="0">E</tspan></text>
  <text class="cls-3" transform="translate(344.85 -245.4) rotate(87.83)"><tspan x="0" y="0">N</tspan></text>
  <text class="cls-3" transform="translate(345.39 -229.09) rotate(93.32)"><tspan x="0" y="0">E</tspan></text>
  <text class="cls-3" transform="translate(344.99 -217.57) rotate(99.53)"><tspan x="0" y="0">M</tspan></text>
  <text class="cls-3" transform="translate(341.49 -197.92) rotate(105.73)"><tspan x="0" y="0">E</tspan></text>
  <text class="cls-3" transform="translate(338.5 -186.75) rotate(111.25)"><tspan x="0" y="0">N</tspan></text>
  <text class="cls-3" transform="translate(332.54 -171.59) rotate(117.01)"><tspan x="0" y="0">T</tspan></text>
  <text class="cls-3" transform="translate(326.79 -160.22) rotate(122.2)"><tspan x="0" y="0">S</tspan></text>
  <text class="cls-3" transform="translate(319.53 -148.93) rotate(125.75)"><tspan x="0" y="0"> </tspan></text>
  <text class="cls-3" transform="translate(317.2 -145.28) rotate(129.94)"><tspan x="0" y="0">C</tspan></text>
  <text class="cls-3" transform="translate(306.67 -132.66) rotate(136.32)"><tspan x="0" y="0">A</tspan></text>
  <text class="cls-3" transform="translate(295.19 -121.64) rotate(142.59)"><tspan x="0" y="0">N</tspan></text>
  <text class="cls-3" transform="translate(282.03 -111.8) rotate(147.04)"><tspan x="0" y="0">I</tspan></text>
  <text class="cls-3" transform="translate(277 -108.28) rotate(151.52)"><tspan x="0" y="0">N</tspan></text>
  <text class="cls-3" transform="translate(262.67 -100.55) rotate(157.4)"><tspan x="0" y="0">S</tspan></text>
  <text class="cls-3" transform="translate(250.2 -95.5) rotate(160.96)"><tspan x="0" y="0"> </tspan></text>
  <text class="cls-3" transform="translate(246.13 -93.93) rotate(164.55)"><tspan x="0" y="0">P</tspan></text>
  <text class="cls-3" transform="translate(233.28 -90.24) rotate(170.58)"><tspan x="0" y="0">O</tspan></text>
  <text class="cls-3" transform="translate(216.5 -87.47) rotate(176.94)"><tspan x="0" y="0">U</tspan></text>
  <text class="cls-3" transform="translate(201.3 -86.65) rotate(-177.29)"><tspan x="0" y="0">R</tspan></text>
  <text class="cls-3" transform="translate(187.05 -87.47) rotate(-173.62)"><tspan x="0" y="0"> </tspan></text>
  <text class="cls-3" transform="translate(182.63 -87.88) rotate(-170.7)"><tspan x="0" y="0">L</tspan></text>
  <text class="cls-3" transform="translate(172.51 -89.49) rotate(-166.37)"><tspan x="0" y="0">E</tspan></text>
  <text class="cls-3" transform="translate(161.19 -92.17) rotate(-161.45)"><tspan x="0" y="0">S</tspan></text>
  <text class="cls-3" transform="translate(148.48 -96.57) rotate(-157.9)"><tspan x="0" y="0"> </tspan></text>
  <text class="cls-3" transform="translate(144.39 -97.99) rotate(-153.84)"><tspan x="0" y="0">A</tspan></text>
  <text class="cls-3" transform="translate(130.13 -104.8) rotate(-146.73)"><tspan x="0" y="0">M</tspan></text>
  <text class="cls-3" transform="translate(113.54 -115.74) rotate(-139.4)"><tspan x="0" y="0">O</tspan></text>
  <text class="cls-3" transform="translate(100.65 -126.8) rotate(-133.05)"><tspan x="0" y="0">U</tspan></text>
  <text class="cls-3" transform="translate(90.23 -137.95) rotate(-127.34)"><tspan x="0" y="0">R</tspan></text>
  <text class="cls-3" transform="translate(81.7 -149.18) rotate(-122.27)"><tspan x="0" y="0">E</tspan></text>
  <text class="cls-3" transform="translate(75.42 -158.91) rotate(-116.94)"><tspan x="0" y="0">U</tspan></text>
  <text class="cls-3" transform="translate(68.5 -172.44) rotate(-110.83)"><tspan x="0" y="0">X</tspan></text>
  <text class="cls-3" transform="translate(63.1 -187.13) rotate(-106.84)"><tspan x="0" y="0"> </tspan></text>
  <text class="cls-3" transform="translate(61.64 -191.2) rotate(-102.81)"><tspan x="0" y="0">D</tspan></text>
  <text class="cls-3" transform="translate(58.21 -206.6) rotate(-97.39)"><tspan x="0" y="0">E</tspan></text>
  <text class="cls-3" transform="translate(56.66 -218.11) rotate(-92.47)"><tspan x="0" y="0">S</tspan></text>
  <text class="cls-3" transform="translate(56.2 -231.57) rotate(-88.95)"><tspan x="0" y="0"> </tspan></text>
  <text class="cls-3" transform="translate(56.04 -235.87) rotate(-84.82)"><tspan x="0" y="0">C</tspan></text>
  <text class="cls-3" transform="translate(57.51 -252.27) rotate(-78.47)"><tspan x="0" y="0">H</tspan></text>
  <text class="cls-3" transform="translate(60.86 -267.88) rotate(-74.11)"><tspan x="0" y="0">I</tspan></text>
  <text class="cls-3" transform="translate(62.48 -273.91) rotate(-70.54)"><tspan x="0" y="0">E</tspan></text>
  <text class="cls-3" transform="translate(66.19 -284.85) rotate(-65.01)"><tspan x="0" y="0">N</tspan></text>
  <text class="cls-3" transform="translate(73.11 -299.59) rotate(-59.13)"><tspan x="0" y="0">S</tspan></text>
  <path class="cls-5" d="M201.6,172.27c-14.78-10.66-31.24-18.75-47.68-26.48-8.02-3.77-14.9-10.24-24.2-5.82-8.29,3.94-11.88,12.66-14.95,20.73-5.88,15.46-6.96,31.79.94,46.8,7.31,13.9,21.28,23.46,36.23,27.48,19.3,5.2,44.36,8.05,59.05-8.62,6.36-7.22-4.21-17.87-10.61-10.61-9.94,11.28-26.33,8.71-39.47,5.92-11.59-2.46-22.8-7.56-29.75-17.58s-7.78-22.2-4.06-33.61c1.6-4.89,3.6-13.06,7.91-16.31,2.05-1.54,2.71-.33,5.33,1.27,3.09,1.89,6.25,3.4,9.52,4.93,15.26,7.13,30.47,14.99,44.16,24.86,3.31,2.39,8.32.55,10.26-2.69,2.25-3.76.58-7.9-2.69-10.26h0Z"/>
  <path class="cls-5" d="M172.6,164.19c14.07-16.88,36.1-27.88,58.22-27.88s40.5,13.6,51.42,32.05c9.65,16.31,1.63,36.76-3.08,53.57-1.92,6.85-2.72,15.2-9.48,19.12-6.38,3.7-14.66,2.49-21.39.55-2.09-.6-4.19-1.3-6.19-2.15-1.88-.79-4.18-2.76-6.11-3.25-.51-.13.65.3.31.79.52-.73.29-2.22.65-3.77,3.2-13.9,6.24-27.7,10.08-41.46,2.6-9.31-11.87-13.29-14.46-3.99-3.93,14.07-7.16,28.17-10.3,42.43-.96,4.34-1.61,8.94.57,13.04s6.44,6.72,10.61,8.66c18.62,8.64,45.78,10.94,55.75-11.36,2.17-4.84,3.19-10.11,4.62-15.2,1.56-5.56,3.16-11.11,4.49-16.74,2.72-11.46,5.05-24,2.29-35.68s-11.91-23.01-20.43-31.15c-9.62-9.18-21.68-16.4-34.81-19.03-30.1-6.04-63.87,7.5-83.33,30.84-6.14,7.37,4.42,18.03,10.61,10.61h0Z"/>
  <text class="cls-4" transform="translate(113.14 79.43) rotate(-40.89)"><tspan x="0" y="0"> </tspan></text>
  <text class="cls-4" transform="translate(120.18 73.32) rotate(-37.26)"><tspan x="0" y="0"> </tspan></text>
  <text class="cls-4" transform="translate(127.63 67.63) rotate(-33.57)"><tspan x="0" y="0"> </tspan></text>
  <text class="cls-7" transform="translate(135.41 62.45) rotate(-29.86)"><tspan x="0" y="0"> </tspan></text>
  <text class="cls-7" transform="translate(142.61 57.15) rotate(-21.31)"><tspan x="0" y="0">W</tspan></text>
  <text class="cls-7" transform="translate(173.68 45.24) rotate(-9.57)"><tspan x="0" y="0">O</tspan></text>
  <text class="cls-7" transform="translate(199.81 40.73) rotate(.88)"><tspan x="0" y="0">O</tspan></text>
  <text class="cls-7" transform="translate(226.47 41.38) rotate(9.76)"><tspan x="0" y="0">F</tspan></text>
  <text class="cls-7" transform="translate(244.98 44.78) rotate(15.28)"><tspan x="0" y="0"> </tspan></text>
  <text class="cls-7" transform="translate(253.85 46.67) rotate(22)"><tspan x="0" y="0">D</tspan></text>
  <text class="cls-7" transform="translate(275.9 55.45) rotate(31.26)"><tspan x="0" y="0">A</tspan></text>
  <text class="cls-7" transform="translate(292.21 64.97) rotate(38.51)"><tspan x="0" y="0">Y</tspan></text>
  <text class="cls-7" transform="translate(309.75 79.35) rotate(44.81)"><tspan x="0" y="0"> </tspan></text>
  <text class="cls-2" transform="translate(316.41 86.02) rotate(47.89)"><tspan x="0" y="0"> </tspan></text>
  <text class="cls-2" transform="translate(320.7 90.7) rotate(51.02)"><tspan x="0" y="0"> </tspan></text>
  <text class="cls-1" transform="translate(324.69 95.55) rotate(52.81)"><tspan x="0" y="0"> </tspan></text>
  <text class="cls-1" transform="translate(328.5 100.58) rotate(55.29)"><tspan x="0" y="0"> </tspan></text>
  <text class="cls-1" transform="translate(332.1 105.76) rotate(57.78)"><tspan x="0" y="0"> </tspan></text>
  <text class="cls-1" transform="translate(335.48 111.1) rotate(60.29)"><tspan x="0" y="0"> </tspan></text>
  <text class="cls-1" transform="translate(338.61 116.58) rotate(62.81)"><tspan x="0" y="0"> </tspan></text>
  <text class="cls-1" transform="translate(341.5 122.2) rotate(65.33)"><tspan x="0" y="0"> </tspan></text>
  <text class="cls-1" transform="translate(344.15 127.93) rotate(67.85)"><tspan x="0" y="0"> </tspan></text>
  <text class="cls-6" transform="translate(346.56 133.61) rotate(71.43)"><tspan x="0" y="0">E</tspan></text>
  <text class="cls-6" transform="translate(350.38 144.55) rotate(76.89)"><tspan x="0" y="0">V</tspan></text>
  <text class="cls-6" transform="translate(353.89 159.97) rotate(82.32)"><tspan x="0" y="0">E</tspan></text>
  <text class="cls-6" transform="translate(355.58 171.42) rotate(87.83)"><tspan x="0" y="0">N</tspan></text>
  <text class="cls-6" transform="translate(356.12 187.73) rotate(93.32)"><tspan x="0" y="0">E</tspan></text>
  <text class="cls-6" transform="translate(355.71 199.25) rotate(99.53)"><tspan x="0" y="0">M</tspan></text>
  <text class="cls-6" transform="translate(352.22 218.91) rotate(105.73)"><tspan x="0" y="0">E</tspan></text>
  <text class="cls-6" transform="translate(349.23 230.07) rotate(111.25)"><tspan x="0" y="0">N</tspan></text>
  <text class="cls-6" transform="translate(343.27 245.23) rotate(117.01)"><tspan x="0" y="0">T</tspan></text>
  <text class="cls-6" transform="translate(337.52 256.6) rotate(122.2)"><tspan x="0" y="0">S</tspan></text>
  <text class="cls-6" transform="translate(330.26 267.89) rotate(125.75)"><tspan x="0" y="0"> </tspan></text>
  <text class="cls-6" transform="translate(327.93 271.54) rotate(129.94)"><tspan x="0" y="0">C</tspan></text>
  <text class="cls-6" transform="translate(317.4 284.16) rotate(136.32)"><tspan x="0" y="0">A</tspan></text>
  <text class="cls-6" transform="translate(305.92 295.18) rotate(142.59)"><tspan x="0" y="0">N</tspan></text>
  <text class="cls-6" transform="translate(292.76 305.02) rotate(147.04)"><tspan x="0" y="0">I</tspan></text>
  <text class="cls-6" transform="translate(287.73 308.55) rotate(151.52)"><tspan x="0" y="0">N</tspan></text>
  <text class="cls-6" transform="translate(273.4 316.27) rotate(157.4)"><tspan x="0" y="0">S</tspan></text>
  <text class="cls-6" transform="translate(260.93 321.32) rotate(160.96)"><tspan x="0" y="0"> </tspan></text>
  <text class="cls-6" transform="translate(256.86 322.9) rotate(164.55)"><tspan x="0" y="0">P</tspan></text>
  <text class="cls-6" transform="translate(244.01 326.59) rotate(170.58)"><tspan x="0" y="0">O</tspan></text>
  <text class="cls-6" transform="translate(227.23 329.36) rotate(176.94)"><tspan x="0" y="0">U</tspan></text>
  <text class="cls-6" transform="translate(212.03 330.17) rotate(-177.29)"><tspan x="0" y="0">R</tspan></text>
  <text class="cls-6" transform="translate(197.78 329.35) rotate(-173.62)"><tspan x="0" y="0"> </tspan></text>
  <text class="cls-6" transform="translate(193.35 328.94) rotate(-170.7)"><tspan x="0" y="0">L</tspan></text>
  <text class="cls-6" transform="translate(183.24 327.33) rotate(-166.37)"><tspan x="0" y="0">E</tspan></text>
  <text class="cls-6" transform="translate(171.92 324.65) rotate(-161.45)"><tspan x="0" y="0">S</tspan></text>
  <text class="cls-6" transform="translate(159.2 320.25) rotate(-157.9)"><tspan x="0" y="0"> </tspan></text>
  <text class="cls-6" transform="translate(155.12 318.83) rotate(-153.84)"><tspan x="0" y="0">A</tspan></text>
  <text class="cls-6" transform="translate(140.85 312.02) rotate(-146.73)"><tspan x="0" y="0">M</tspan></text>
  <text class="cls-6" transform="translate(124.27 301.08) rotate(-139.4)"><tspan x="0" y="0">O</tspan></text>
  <text class="cls-6" transform="translate(111.38 290.02) rotate(-133.05)"><tspan x="0" y="0">U</tspan></text>
  <text class="cls-6" transform="translate(100.96 278.87) rotate(-127.34)"><tspan x="0" y="0">R</tspan></text>
  <text class="cls-6" transform="translate(92.43 267.64) rotate(-122.27)"><tspan x="0" y="0">E</tspan></text>
  <text class="cls-6" transform="translate(86.15 257.91) rotate(-116.94)"><tspan x="0" y="0">U</tspan></text>
  <text class="cls-6" transform="translate(79.23 244.39) rotate(-110.83)"><tspan x="0" y="0">X</tspan></text>
  <text class="cls-6" transform="translate(73.83 229.7) rotate(-106.84)"><tspan x="0" y="0"> </tspan></text>
  <text class="cls-6" transform="translate(72.37 225.62) rotate(-102.81)"><tspan x="0" y="0">D</tspan></text>
  <text class="cls-6" transform="translate(68.94 210.23) rotate(-97.39)"><tspan x="0" y="0">E</tspan></text>
  <text class="cls-6" transform="translate(67.38 198.71) rotate(-92.47)"><tspan x="0" y="0">S</tspan></text>
  <text class="cls-6" transform="translate(66.93 185.26) rotate(-88.95)"><tspan x="0" y="0"> </tspan></text>
  <text class="cls-6" transform="translate(66.77 180.95) rotate(-84.82)"><tspan x="0" y="0">C</tspan></text>
  <text class="cls-6" transform="translate(68.24 164.55) rotate(-78.47)"><tspan x="0" y="0">H</tspan></text>
  <text class="cls-6" transform="translate(71.59 148.95) rotate(-74.11)"><tspan x="0" y="0">I</tspan></text>
  <text class="cls-6" transform="translate(73.21 142.91) rotate(-70.54)"><tspan x="0" y="0">E</tspan></text>
  <text class="cls-6" transform="translate(76.92 131.97) rotate(-65.01)"><tspan x="0" y="0">N</tspan></text>
  <text class="cls-6" transform="translate(83.84 117.23) rotate(-59.13)"><tspan x="0" y="0">S</tspan></text>
  <path class="cls-5" d="M143.97,150.62c-6.64-7.37-18.26-1.41-22.3,5.8-1.98,3.52-.87,8.2,2.69,10.26,8.15,4.72,17.23-3.51,21.33-10.12,3.77-6.09-4.04-14.74-10.26-10.26s-12.53,9.73-10.84,18.29c.94,4.75,7.12,6.86,11.02,4.48,2.79-1.7,4.68-4.1,6.41-6.82.25-.39.52-.78.75-1.18.78-1.39-1,.91.06-.03l-.82.66c-1.15.65-2.34.85-3.56.61-.4.19-1.25-.84-.06.16l-1.17-9.09c.34-.45-1.16.84-1.62,1.19-1.35,1.03-2.72,2.16-4.12,3.1-1.04.7-.22.31-1.28.63-1.46.44-2.94.72-4.38,1.24l5.78,13.71c6.14-4.25,14.19-6.53,16.42-14.59,1.27-4.6-2.34-9.62-7.23-9.49-6.06.16-14.25,4.77-16.87,10.41l8.47-3.45.45.15c-3.25-2.43-8.38-.53-10.26,2.69-2.24,3.83-.56,7.83,2.69,10.26.92.69,2,1.12,3.13,1.36,3.01.64,7.04-.36,8.47-3.45.35-.64.24-.58-.33.18.29-.34.6-.66.92-.95.69-.67.07-.22,1.23-.92.78-.47,1.55-.98,2.39-1.33-1.34.57,2.43-.03-.3.04-2.41-3.16-4.82-6.33-7.23-9.49.36-1.31-.11-.05.21-.29.71-.53-.72.64-.87.76.76-.64-.4.24-.69.42-.58.36-1.15.71-1.74,1.05-2.15,1.23-4.4,2.27-6.44,3.68-3.06,2.12-4.64,5.79-3.07,9.37,1.41,3.2,5.27,5.62,8.85,4.34,1.7-.6,3.46-.9,5.17-1.47,2.5-.84,4.41-2.15,6.48-3.73,2.52-1.92,6.32-4.72,8.72-7.85,1.86-2.42,1.13-7.16-1.17-9.09-4.55-3.82-10.33-6.36-15.67-2.29-1.65,1.26-2.84,2.9-3.95,4.64-.42.65-.81,1.32-1.26,1.95-.31.44,0-.59.05-.14-.3.29-.27.29.09,0,.47-.32.4-.28-.21.1l11.02,4.48c.26.8.22,1.53-.13,2.19-.23.46-.13.32.29-.42-.7.6,1.04-.96,1.01-.93,1.19-1.11,1.27-1.1,2.78-2.19l-10.26-10.26c-.89,1.44.72-.61-.52.73-.7.77-1.39,1.53-2.16,2.24-.35.33-.71.66-1.09.95.6-.47.27-.19-.16.06-.41.24-1.59.45-.75.44,1.72-.02,1.38-1.15,3.88.3l2.69,10.26c.63-1.12-.99.76.15-.27.32-.34.65-.66,1-.96-.46.33-.48.34-.05.05.3-.21.62-.41.95-.59.73-.38.86-.45.4-.2,0,.63-3.26-.3-3.7-.79,2.71,3.01,7.85,2.76,10.61,0,2.99-2.99,2.72-7.59,0-10.61h0Z"/>
  <path class="cls-5" d="M205.66,166.45c7.45,0,7.47-11.58,0-11.58s-7.47,11.58,0,11.58h0Z"/>
  <path class="cls-5" d="M192.45,164.6c6.27,0,6.28-9.74,0-9.74s-6.28,9.74,0,9.74h0Z"/>
</svg>