<?xml version="1.0" encoding="UTF-8"?>
<svg id="Calque_2" data-name="Calque 2" xmlns="http://www.w3.org/2000/svg" viewBox="0 0 406.31 370.46">
  <defs>
    <style>
      .cls-1, .cls-2 {
        font-family: Poppins-Regular, Poppins;
        font-size: 24.72px;
      }

      .cls-1, .cls-3, .cls-4, .cls-5 {
        fill: #69322d;
      }

      .cls-2, .cls-6, .cls-7 {
        fill: #26422b;
      }

      .cls-3, .cls-6 {
        font-family: Poppins-Bold, Poppins;
        font-size: 22.53px;
        font-weight: 700;
      }

      .cls-4, .cls-7 {
        font-family: DistroBlack, 'Distro Black';
        font-size: 38.62px;
      }
    </style>
  </defs>
  <path class="cls-5" d="M193.16,176.27c-14.78-10.66-31.24-18.75-47.68-26.48-7.94-3.74-14.78-10.19-24-5.82-8.24,3.9-11.81,12.59-14.87,20.61-5.86,15.41-6.95,31.68.92,46.65,7.29,13.85,21.21,23.38,36.11,27.4,19.23,5.18,44.21,8.05,58.86-8.57,6.19-7.03-4.1-17.4-10.33-10.33-9.99,11.34-26.45,8.77-39.66,5.97-11.64-2.47-22.89-7.6-29.87-17.67s-7.82-22.3-4.08-33.76c1.61-4.94,3.62-13.1,7.97-16.4,2.17-1.65,3.02-.32,5.57,1.24,3.09,1.89,6.25,3.4,9.52,4.93,15.26,7.13,30.47,14.99,44.16,24.86,7.64,5.51,14.94-7.16,7.37-12.61h0Z"/>
  <path class="cls-5" d="M164.12,167.88c14.1-16.92,36.19-27.94,58.35-27.94s40.64,13.64,51.59,32.15c9.69,16.37,1.67,36.85-3.06,53.72-1.93,6.91-2.76,15.28-9.56,19.24-6.42,3.73-14.75,2.53-21.54.57-2.11-.61-4.22-1.31-6.24-2.17-1.89-.8-4.17-2.74-6.11-3.25.77.2-1.14-1.12,0-.04.35.33.4.49.21.66.36-.31.39-2.67.66-3.82,3.2-13.9,6.24-27.7,10.08-41.46,2.53-9.07-11.56-12.94-14.09-3.88-3.93,14.07-7.16,28.17-10.3,42.43-.94,4.29-1.6,8.83.55,12.89s6.4,6.67,10.54,8.59c18.53,8.59,45.57,10.9,55.48-11.29,2.16-4.83,3.17-10.08,4.6-15.15,1.56-5.56,3.16-11.11,4.49-16.74,2.72-11.42,5.04-23.94,2.29-35.57-2.76-11.69-11.88-22.95-20.38-31.07-9.6-9.16-21.62-16.35-34.73-18.98-30.04-6.03-63.73,7.5-83.14,30.79-5.98,7.17,4.3,17.56,10.33,10.33h0Z"/>
  <text class="cls-4" transform="translate(104.81 83.25) rotate(-40.89)"><tspan x="0" y="0"> </tspan></text>
  <text class="cls-4" transform="translate(111.84 77.14) rotate(-37.26)"><tspan x="0" y="0"> </tspan></text>
  <text class="cls-4" transform="translate(119.29 71.46) rotate(-33.57)"><tspan x="0" y="0"> </tspan></text>
  <text class="cls-4" transform="translate(127.07 66.28) rotate(-29.86)"><tspan x="0" y="0"> </tspan></text>
  <text class="cls-4" transform="translate(134.28 60.97) rotate(-21.31)"><tspan x="0" y="0">W</tspan></text>
  <text class="cls-4" transform="translate(165.34 49.07) rotate(-9.57)"><tspan x="0" y="0">O</tspan></text>
  <text class="cls-4" transform="translate(191.47 44.56) rotate(.88)"><tspan x="0" y="0">O</tspan></text>
  <text class="cls-4" transform="translate(218.13 45.21) rotate(9.76)"><tspan x="0" y="0">F</tspan></text>
  <text class="cls-4" transform="translate(236.64 48.6) rotate(15.28)"><tspan x="0" y="0"> </tspan></text>
  <text class="cls-4" transform="translate(245.51 50.5) rotate(22)"><tspan x="0" y="0">D</tspan></text>
  <text class="cls-4" transform="translate(267.56 59.27) rotate(31.26)"><tspan x="0" y="0">A</tspan></text>
  <text class="cls-4" transform="translate(283.87 68.79) rotate(38.51)"><tspan x="0" y="0">Y</tspan></text>
  <text class="cls-4" transform="translate(301.41 83.18) rotate(44.81)"><tspan x="0" y="0"> </tspan></text>
  <text class="cls-1" transform="translate(308.08 89.84) rotate(47.89)"><tspan x="0" y="0"> </tspan></text>
  <text class="cls-1" transform="translate(312.37 94.52) rotate(51.02)"><tspan x="0" y="0"> </tspan></text>
  <text class="cls-1" transform="translate(316.35 99.38) rotate(52.81)"><tspan x="0" y="0"> </tspan></text>
  <text class="cls-1" transform="translate(320.17 104.4) rotate(55.29)"><tspan x="0" y="0"> </tspan></text>
  <text class="cls-1" transform="translate(323.77 109.58) rotate(57.78)"><tspan x="0" y="0"> </tspan></text>
  <text class="cls-1" transform="translate(327.14 114.93) rotate(60.29)"><tspan x="0" y="0"> </tspan></text>
  <text class="cls-1" transform="translate(330.27 120.4) rotate(62.81)"><tspan x="0" y="0"> </tspan></text>
  <text class="cls-1" transform="translate(333.16 126.02) rotate(65.33)"><tspan x="0" y="0"> </tspan></text>
  <text class="cls-1" transform="translate(335.81 131.76) rotate(67.85)"><tspan x="0" y="0"> </tspan></text>
  <text class="cls-3" transform="translate(338.23 137.43) rotate(71.43)"><tspan x="0" y="0">E</tspan></text>
  <text class="cls-3" transform="translate(342.04 148.38) rotate(76.89)"><tspan x="0" y="0">V</tspan></text>
  <text class="cls-3" transform="translate(345.56 163.79) rotate(82.32)"><tspan x="0" y="0">E</tspan></text>
  <text class="cls-3" transform="translate(347.24 175.25) rotate(87.83)"><tspan x="0" y="0">N</tspan></text>
  <text class="cls-3" transform="translate(347.78 191.55) rotate(93.32)"><tspan x="0" y="0">E</tspan></text>
  <text class="cls-3" transform="translate(347.38 203.08) rotate(99.53)"><tspan x="0" y="0">M</tspan></text>
  <text class="cls-3" transform="translate(343.88 222.73) rotate(105.73)"><tspan x="0" y="0">E</tspan></text>
  <text class="cls-3" transform="translate(340.89 233.9) rotate(111.25)"><tspan x="0" y="0">N</tspan></text>
  <text class="cls-3" transform="translate(334.93 249.05) rotate(117.01)"><tspan x="0" y="0">T</tspan></text>
  <text class="cls-3" transform="translate(329.18 260.43) rotate(122.2)"><tspan x="0" y="0">S</tspan></text>
  <text class="cls-3" transform="translate(321.92 271.71) rotate(125.75)"><tspan x="0" y="0"> </tspan></text>
  <text class="cls-3" transform="translate(319.59 275.36) rotate(129.94)"><tspan x="0" y="0">C</tspan></text>
  <text class="cls-3" transform="translate(309.06 287.98) rotate(136.32)"><tspan x="0" y="0">A</tspan></text>
  <text class="cls-3" transform="translate(297.58 299) rotate(142.59)"><tspan x="0" y="0">N</tspan></text>
  <text class="cls-3" transform="translate(284.42 308.85) rotate(147.04)"><tspan x="0" y="0">I</tspan></text>
  <text class="cls-3" transform="translate(279.39 312.37) rotate(151.52)"><tspan x="0" y="0">N</tspan></text>
  <text class="cls-3" transform="translate(265.06 320.1) rotate(157.4)"><tspan x="0" y="0">S</tspan></text>
  <text class="cls-3" transform="translate(252.59 325.15) rotate(160.96)"><tspan x="0" y="0"> </tspan></text>
  <text class="cls-3" transform="translate(248.52 326.72) rotate(164.55)"><tspan x="0" y="0">P</tspan></text>
  <text class="cls-3" transform="translate(235.67 330.41) rotate(170.58)"><tspan x="0" y="0">O</tspan></text>
  <text class="cls-3" transform="translate(218.89 333.18) rotate(176.94)"><tspan x="0" y="0">U</tspan></text>
  <text class="cls-3" transform="translate(203.69 334) rotate(-177.29)"><tspan x="0" y="0">R</tspan></text>
  <text class="cls-3" transform="translate(189.44 333.18) rotate(-173.62)"><tspan x="0" y="0"> </tspan></text>
  <text class="cls-3" transform="translate(185.02 332.77) rotate(-170.7)"><tspan x="0" y="0">L</tspan></text>
  <text class="cls-3" transform="translate(174.9 331.16) rotate(-166.37)"><tspan x="0" y="0">E</tspan></text>
  <text class="cls-3" transform="translate(163.58 328.48) rotate(-161.45)"><tspan x="0" y="0">S</tspan></text>
  <text class="cls-3" transform="translate(150.87 324.07) rotate(-157.9)"><tspan x="0" y="0"> </tspan></text>
  <text class="cls-3" transform="translate(146.78 322.66) rotate(-153.84)"><tspan x="0" y="0">A</tspan></text>
  <text class="cls-3" transform="translate(132.52 315.85) rotate(-146.73)"><tspan x="0" y="0">M</tspan></text>
  <text class="cls-3" transform="translate(115.93 304.91) rotate(-139.4)"><tspan x="0" y="0">O</tspan></text>
  <text class="cls-3" transform="translate(103.04 293.84) rotate(-133.05)"><tspan x="0" y="0">U</tspan></text>
  <text class="cls-3" transform="translate(92.62 282.7) rotate(-127.34)"><tspan x="0" y="0">R</tspan></text>
  <text class="cls-3" transform="translate(84.09 271.46) rotate(-122.27)"><tspan x="0" y="0">E</tspan></text>
  <text class="cls-3" transform="translate(77.81 261.73) rotate(-116.94)"><tspan x="0" y="0">U</tspan></text>
  <text class="cls-3" transform="translate(70.89 248.21) rotate(-110.83)"><tspan x="0" y="0">X</tspan></text>
  <text class="cls-3" transform="translate(65.49 233.52) rotate(-106.84)"><tspan x="0" y="0"> </tspan></text>
  <text class="cls-3" transform="translate(64.03 229.44) rotate(-102.81)"><tspan x="0" y="0">D</tspan></text>
  <text class="cls-3" transform="translate(60.6 214.05) rotate(-97.39)"><tspan x="0" y="0">E</tspan></text>
  <text class="cls-3" transform="translate(59.05 202.53) rotate(-92.47)"><tspan x="0" y="0">S</tspan></text>
  <text class="cls-3" transform="translate(58.59 189.08) rotate(-88.95)"><tspan x="0" y="0"> </tspan></text>
  <text class="cls-3" transform="translate(58.43 184.77) rotate(-84.82)"><tspan x="0" y="0">C</tspan></text>
  <text class="cls-3" transform="translate(59.9 168.37) rotate(-78.47)"><tspan x="0" y="0">H</tspan></text>
  <text class="cls-3" transform="translate(63.25 152.77) rotate(-74.11)"><tspan x="0" y="0">I</tspan></text>
  <text class="cls-3" transform="translate(64.87 146.74) rotate(-70.54)"><tspan x="0" y="0">E</tspan></text>
  <text class="cls-3" transform="translate(68.58 135.8) rotate(-65.01)"><tspan x="0" y="0">N</tspan></text>
  <text class="cls-3" transform="translate(75.5 121.06) rotate(-59.13)"><tspan x="0" y="0">S</tspan></text>
  <path class="cls-5" d="M135.97,154.11c-6.85-7.6-18.85-1.57-23.04,5.9-2.1,3.74-.93,8.71,2.86,10.91,8.41,4.87,17.73-3.44,21.97-10.29,4.01-6.47-4.29-15.67-10.91-10.91s-12.79,10.01-11.06,18.83c.99,5.04,7.57,7.29,11.71,4.76,2.86-1.75,4.81-4.2,6.58-6.99.25-.39.52-.78.75-1.18.8-1.44-1.11,1.05,0,.06l-.91.73c-1.27.72-2.57.94-3.92.65l-.75-.28c.7.44.86.54.48.32-.42-3.22-.83-6.44-1.25-9.66.55-.71-1.18.82-1.45,1.02-1.4,1.06-2.89,2.03-4.22,3.17-.1.09-.8.48-.63.4.73-.33-.16.06-.44.11-1.47.22-2.99.74-4.38,1.24l6.14,14.57c6.26-4.33,14.36-6.65,16.63-14.87,1.35-4.89-2.49-10.23-7.69-10.09-6.21.16-14.58,4.85-17.28,10.65l9-3.66.57.2c-3.45-2.58-8.91-.56-10.91,2.86-2.38,4.07-.6,8.32,2.86,10.91.95.71,2.08,1.16,3.24,1.41,3.2.68,7.48-.39,9-3.66.36-.68.23-.59-.4.28.29-.34.6-.66.92-.95.68-.58.73-.64.15-.18.32-.23.65-.46.99-.67.79-.47,1.55-.96,2.39-1.33-1.55.7,2.41.03-.54.11l-7.69-10.09c.45-.82.53-.97.24-.45-.23.37-.21.37.05,0,.82-.48-.63.55-.83.72.85-.73-.2.11-.59.35-.58.36-1.15.71-1.74,1.05-2.15,1.23-4.4,2.27-6.44,3.68-3.25,2.25-4.93,6.15-3.26,9.95,1.49,3.4,5.6,5.97,9.4,4.61,1.7-.6,3.46-.9,5.17-1.47,2.58-.86,4.55-2.22,6.69-3.85-.99.76,1.33-.99,1.24-.92,1.07-.79,2.13-1.57,3.17-2.4,1.75-1.39,3.01-2.84,4.39-4.63,1.98-2.57,1.2-7.61-1.25-9.66-4.73-3.98-10.75-6.55-16.29-2.33-1.7,1.3-2.92,2.98-4.08,4.77-.42.65-.82,1.31-1.26,1.95-.63.91.69-1.18.12-.24-.43.72,1.37-.82-.03.03l11.71,4.76c.29.91.24,1.74-.16,2.49-.25.51-.16.39.26-.36-.91.58.8-.7.94-.84.17-.16,1.95-1.63.96-.86.56-.44,1.15-.84,1.73-1.26-3.64-3.64-7.27-7.27-10.91-10.91-.94,1.52.86-.78-.45.64-.71.77-1.39,1.53-2.16,2.24-.35.33-.71.65-1.09.95.6-.49.51-.31-.07-.01-.44.23-1.64.45-.69.42,1.88-.05,1.64-1.22,4.29.32.95,3.64,1.91,7.27,2.86,10.91.66-1.19-1.13.9.08-.17.32-.34.65-.66,1-.96-.56.4-.61.44-.15.12.3-.21.62-.41.95-.59.75-.39.86-.45.34-.18.04.68-3.71-.32-4.22-.89,2.88,3.2,8.34,2.93,11.27,0,3.18-3.18,2.89-8.06,0-11.27h0Z"/>
  <path class="cls-5" d="M197.32,170.27c7.45,0,7.47-11.58,0-11.58s-7.47,11.58,0,11.58h0Z"/>
  <path class="cls-5" d="M184.12,168.43c6.27,0,6.28-9.74,0-9.74s-6.28,9.74,0,9.74h0Z"/>
  <text class="cls-4" transform="translate(115.53 500.08) rotate(-40.89)"><tspan x="0" y="0"> </tspan></text>
  <text class="cls-4" transform="translate(122.57 493.97) rotate(-37.26)"><tspan x="0" y="0"> </tspan></text>
  <text class="cls-4" transform="translate(130.02 488.28) rotate(-33.57)"><tspan x="0" y="0"> </tspan></text>
  <text class="cls-7" transform="translate(137.8 483.1) rotate(-29.86)"><tspan x="0" y="0"> </tspan></text>
  <text class="cls-7" transform="translate(145 477.79) rotate(-21.31)"><tspan x="0" y="0">W</tspan></text>
  <text class="cls-7" transform="translate(176.07 465.89) rotate(-9.57)"><tspan x="0" y="0">O</tspan></text>
  <text class="cls-7" transform="translate(202.2 461.38) rotate(.88)"><tspan x="0" y="0">O</tspan></text>
  <text class="cls-7" transform="translate(228.86 462.03) rotate(9.76)"><tspan x="0" y="0">F</tspan></text>
  <text class="cls-7" transform="translate(247.37 465.42) rotate(15.28)"><tspan x="0" y="0"> </tspan></text>
  <text class="cls-7" transform="translate(256.24 467.32) rotate(22)"><tspan x="0" y="0">D</tspan></text>
  <text class="cls-7" transform="translate(278.29 476.1) rotate(31.26)"><tspan x="0" y="0">A</tspan></text>
  <text class="cls-7" transform="translate(294.6 485.61) rotate(38.51)"><tspan x="0" y="0">Y</tspan></text>
  <text class="cls-7" transform="translate(312.14 500) rotate(44.81)"><tspan x="0" y="0"> </tspan></text>
  <text class="cls-2" transform="translate(318.8 506.67) rotate(47.89)"><tspan x="0" y="0"> </tspan></text>
  <text class="cls-2" transform="translate(323.09 511.35) rotate(51.02)"><tspan x="0" y="0"> </tspan></text>
  <text class="cls-1" transform="translate(327.08 516.2) rotate(52.81)"><tspan x="0" y="0"> </tspan></text>
  <text class="cls-1" transform="translate(330.89 521.22) rotate(55.29)"><tspan x="0" y="0"> </tspan></text>
  <text class="cls-1" transform="translate(334.49 526.41) rotate(57.78)"><tspan x="0" y="0"> </tspan></text>
  <text class="cls-1" transform="translate(337.87 531.75) rotate(60.29)"><tspan x="0" y="0"> </tspan></text>
  <text class="cls-1" transform="translate(341 537.22) rotate(62.81)"><tspan x="0" y="0"> </tspan></text>
  <text class="cls-1" transform="translate(343.89 542.84) rotate(65.33)"><tspan x="0" y="0"> </tspan></text>
  <text class="cls-1" transform="translate(346.54 548.58) rotate(67.85)"><tspan x="0" y="0"> </tspan></text>
  <text class="cls-6" transform="translate(348.95 554.26) rotate(71.43)"><tspan x="0" y="0">E</tspan></text>
  <text class="cls-6" transform="translate(352.77 565.2) rotate(76.89)"><tspan x="0" y="0">V</tspan></text>
  <text class="cls-6" transform="translate(356.28 580.61) rotate(82.32)"><tspan x="0" y="0">E</tspan></text>
  <text class="cls-6" transform="translate(357.97 592.07) rotate(87.83)"><tspan x="0" y="0">N</tspan></text>
  <text class="cls-6" transform="translate(358.51 608.38) rotate(93.32)"><tspan x="0" y="0">E</tspan></text>
  <text class="cls-6" transform="translate(358.1 619.9) rotate(99.53)"><tspan x="0" y="0">M</tspan></text>
  <text class="cls-6" transform="translate(354.61 639.55) rotate(105.73)"><tspan x="0" y="0">E</tspan></text>
  <text class="cls-6" transform="translate(351.62 650.72) rotate(111.25)"><tspan x="0" y="0">N</tspan></text>
  <text class="cls-6" transform="translate(345.66 665.88) rotate(117.01)"><tspan x="0" y="0">T</tspan></text>
  <text class="cls-6" transform="translate(339.91 677.25) rotate(122.2)"><tspan x="0" y="0">S</tspan></text>
  <text class="cls-6" transform="translate(332.65 688.54) rotate(125.75)"><tspan x="0" y="0"> </tspan></text>
  <text class="cls-6" transform="translate(330.32 692.19) rotate(129.94)"><tspan x="0" y="0">C</tspan></text>
  <text class="cls-6" transform="translate(319.79 704.81) rotate(136.32)"><tspan x="0" y="0">A</tspan></text>
  <text class="cls-6" transform="translate(308.31 715.83) rotate(142.59)"><tspan x="0" y="0">N</tspan></text>
  <text class="cls-6" transform="translate(295.15 725.67) rotate(147.04)"><tspan x="0" y="0">I</tspan></text>
  <text class="cls-6" transform="translate(290.12 729.19) rotate(151.52)"><tspan x="0" y="0">N</tspan></text>
  <text class="cls-6" transform="translate(275.79 736.92) rotate(157.4)"><tspan x="0" y="0">S</tspan></text>
  <text class="cls-6" transform="translate(263.32 741.97) rotate(160.96)"><tspan x="0" y="0"> </tspan></text>
  <text class="cls-6" transform="translate(259.25 743.54) rotate(164.55)"><tspan x="0" y="0">P</tspan></text>
  <text class="cls-6" transform="translate(246.4 747.23) rotate(170.58)"><tspan x="0" y="0">O</tspan></text>
  <text class="cls-6" transform="translate(229.62 750) rotate(176.94)"><tspan x="0" y="0">U</tspan></text>
  <text class="cls-6" transform="translate(214.42 750.82) rotate(-177.29)"><tspan x="0" y="0">R</tspan></text>
  <text class="cls-6" transform="translate(200.17 750) rotate(-173.62)"><tspan x="0" y="0"> </tspan></text>
  <text class="cls-6" transform="translate(195.74 749.59) rotate(-170.7)"><tspan x="0" y="0">L</tspan></text>
  <text class="cls-6" transform="translate(185.63 747.98) rotate(-166.37)"><tspan x="0" y="0">E</tspan></text>
  <text class="cls-6" transform="translate(174.31 745.3) rotate(-161.45)"><tspan x="0" y="0">S</tspan></text>
  <text class="cls-6" transform="translate(161.59 740.9) rotate(-157.9)"><tspan x="0" y="0"> </tspan></text>
  <text class="cls-6" transform="translate(157.51 739.48) rotate(-153.84)"><tspan x="0" y="0">A</tspan></text>
  <text class="cls-6" transform="translate(143.24 732.67) rotate(-146.73)"><tspan x="0" y="0">M</tspan></text>
  <text class="cls-6" transform="translate(126.66 721.73) rotate(-139.4)"><tspan x="0" y="0">O</tspan></text>
  <text class="cls-6" transform="translate(113.77 710.67) rotate(-133.05)"><tspan x="0" y="0">U</tspan></text>
  <text class="cls-6" transform="translate(103.35 699.52) rotate(-127.34)"><tspan x="0" y="0">R</tspan></text>
  <text class="cls-6" transform="translate(94.82 688.29) rotate(-122.27)"><tspan x="0" y="0">E</tspan></text>
  <text class="cls-6" transform="translate(88.54 678.56) rotate(-116.94)"><tspan x="0" y="0">U</tspan></text>
  <text class="cls-6" transform="translate(81.62 665.03) rotate(-110.83)"><tspan x="0" y="0">X</tspan></text>
  <text class="cls-6" transform="translate(76.22 650.34) rotate(-106.84)"><tspan x="0" y="0"> </tspan></text>
  <text class="cls-6" transform="translate(74.76 646.27) rotate(-102.81)"><tspan x="0" y="0">D</tspan></text>
  <text class="cls-6" transform="translate(71.33 630.87) rotate(-97.39)"><tspan x="0" y="0">E</tspan></text>
  <text class="cls-6" transform="translate(69.77 619.36) rotate(-92.47)"><tspan x="0" y="0">S</tspan></text>
  <text class="cls-6" transform="translate(69.32 605.9) rotate(-88.95)"><tspan x="0" y="0"> </tspan></text>
  <text class="cls-6" transform="translate(69.16 601.6) rotate(-84.82)"><tspan x="0" y="0">C</tspan></text>
  <text class="cls-6" transform="translate(70.63 585.2) rotate(-78.47)"><tspan x="0" y="0">H</tspan></text>
  <text class="cls-6" transform="translate(73.98 569.59) rotate(-74.11)"><tspan x="0" y="0">I</tspan></text>
  <text class="cls-6" transform="translate(75.6 563.56) rotate(-70.54)"><tspan x="0" y="0">E</tspan></text>
  <text class="cls-6" transform="translate(79.31 552.62) rotate(-65.01)"><tspan x="0" y="0">N</tspan></text>
  <text class="cls-6" transform="translate(86.23 537.88) rotate(-59.13)"><tspan x="0" y="0">S</tspan></text>
</svg>