<?xml version="1.0" encoding="UTF-8"?>
<svg id="Calque_2" data-name="Calque 2" xmlns="http://www.w3.org/2000/svg" viewBox="0 0 296.37 224.66">
  <defs>
    <style>
      .cls-1 {
        fill: #f3f1c7;
      }
    </style>
  </defs>
  <path class="cls-1" d="M131.16,105.28c-20.76-8.64-42.94-13.87-64.91-18.37-10.22-2.09-19.71-7.75-29.76-1.53-10.89,6.74-12.95,20.18-14.46,31.77-2.66,20.35.77,39.84,14.2,55.92,12.56,15.02,32.05,22.61,51.23,23.7,25.42,1.44,58.16-2.77,71.32-27.79,5.99-11.38-11.27-21.5-17.27-10.09-8.9,16.92-31.06,17.75-47.88,17.98-14.51.2-29.02-3.84-39.28-13.68s-14.37-23.3-13.29-37.84c.58-7.74,1.54-15.93,5.44-22.5.23-.38.7-.62,1.11-.83-.49.25-1.42.12-.39.31.08.01,1.97.48,3.38.93,4.27,1.36,8.43,2.54,12.82,3.44,21.13,4.32,42.46,9.57,62.42,17.87,4.99,2.08,11-2.24,12.3-6.98,1.58-5.76-1.98-10.22-6.98-12.3h0Z"/>
  <path class="cls-1" d="M94.96,97.04c11.72-23.76,34.31-40.61,60.02-46.44,28.4-6.44,55.93,6.26,74.65,27.6,1.47,1.67,2.09,2.46,3.45,5.05,1.11,2.12,1.7,3.93,2.49,6.82,1.52,5.55,2.15,10.85,2.49,16.55.72,11.98,0,23.97-.41,35.95-.16,4.67.24,9.6-.82,13.91s-2.62,7.18-6.47,10.16c.82-.64-1.43.87-1.86,1.12-1.07.63-2.18,1.23-3.33,1.7.98-.4-1.39.43-1.71.53-1.43.45-2.88.82-4.35,1.13-4.01.84-9.92.98-15.05.58-3.15-.25-4.99-.53-8.28-1.26-1.44-.32-2.85-.7-4.26-1.13-.16-.05-1.62-.42-.46-.13,1.3.33-.59-.35-.57-.36.03,0,.74.73.86,1.01-.37-.94.34,1.05.35,1.06-.21-.12-.37-1.26-.43-1.53-.23-1.09.1.94.1.93-.07-.65-.11-1.31-.13-1.97-.03-1.23-.05-2.45-.05-3.68-.05-17.53-.46-34.91.2-52.45.48-12.87-19.52-12.85-20,0-.66,17.71-.29,35.26-.2,52.96.03,5.27.28,10.69,3.22,15.26,3.44,5.34,9.51,7.8,15.46,9.17,25.58,5.93,61.2.7,66.73-30.2,1.16-6.46.89-13.07,1.14-19.6s.57-13.51.61-20.27c.09-14.54-.71-29.79-6.6-43.29-6.17-14.16-20.49-25.52-33.34-33.39-15.24-9.33-33.45-15.06-51.43-14.02-36.93,2.15-72.85,24.77-89.31,58.14-2.39,4.84-1.3,10.82,3.59,13.68,4.41,2.58,11.28,1.28,13.68-3.59h0Z"/>
  <path class="cls-1" d="M39.14,113.9c.35.42.64.88.89,1.36.43.79.36.62-.22-.49l.25,1.06-.2-1.12c-.08,1.3-.04,1.5.1.61.18-.9.14-.69-.12.62-.08.28-1.01,3.16-.49,1.86.49-1.2-.98,1.69-.97,1.66-1.03,1.87.33-.16-.52.64-1.81,1.69-.39.51-.43.46l-.92.51c.72-.5,1.52-.71,2.39-.62-6.69.78-12.48,5.18-12.48,12.48,0,6.14,5.74,13.26,12.48,12.48,9.95-1.15,18.08-6.75,22.41-15.94s5.26-19.83-.62-28.16c-3.88-5.5-10.9-8.09-17.07-4.48-5.43,3.18-8.39,11.54-4.48,17.07h0Z"/>
  <path class="cls-1" d="M139.61,98.05c10.7,0,10.72-16.64,0-16.64s-10.72,16.64,0,16.64h0Z"/>
  <path class="cls-1" d="M121.95,92.63c5.35,0,5.36-8.32,0-8.32s-5.36,8.32,0,8.32h0Z"/>
</svg>