<?xml version="1.0" encoding="UTF-8"?>
<svg id="Calque_2" data-name="Calque 2" xmlns="http://www.w3.org/2000/svg" viewBox="0 0 425.43 76.48">
  <defs>
    <style>
      .cls-1 {
        fill: #de6c49;
      }

      .cls-2 {
        fill: #26422b;
      }
    </style>
  </defs>
  <g>
    <path class="cls-1" d="M93.42,17.83c1.62,1.13,2.44,2.85,2.44,5.16,0,.72-.43,2.9-1.28,6.55-.86,3.65-2.33,8.42-4.42,14.33-1.27,3.54-2.31,6.95-3.14,10.21-.83,3.26-1.75,6.16-2.77,8.71-1.02,2.54-2.3,4.57-3.84,6.09-1.54,1.52-3.66,2.27-6.36,2.27-2.53,0-4.61-.53-6.24-1.58-1.62-1.05-2.93-2.36-3.92-3.93s-1.76-3.28-2.31-5.12c-.55-1.85-1.02-3.55-1.4-5.12-.39-1.57-.8-2.88-1.24-3.93-.44-1.05-1.02-1.58-1.74-1.58s-1.29.53-1.73,1.58c-.44,1.05-.88,2.36-1.32,3.93-.44,1.57-.95,3.27-1.53,5.12s-1.35,3.56-2.31,5.12c-.96,1.57-2.17,2.88-3.63,3.93-1.46,1.05-3.29,1.58-5.49,1.58-2.59,0-4.65-.58-6.19-1.73-1.54-1.16-2.85-2.89-3.92-5.2-1.07-2.31-2.09-5.19-3.06-8.63-.96-3.44-2.19-7.45-3.68-12.02-.44-1.28-.99-2.95-1.65-5.01-.66-2.06-1.32-4.12-1.98-6.2-.66-2.08-1.22-3.98-1.69-5.7-.47-1.72-.7-2.86-.7-3.43,0-1.18.3-2.22.91-3.12s1.36-1.66,2.27-2.27c.91-.62,1.91-1.08,3.01-1.39s2.17-.46,3.22-.46c2.26,0,4.1.42,5.53,1.27,1.43.85,2.59,1.91,3.47,3.2.88,1.28,1.54,2.66,1.98,4.12s.81,2.84,1.11,4.12.59,2.35.87,3.2c.27.85.69,1.27,1.24,1.27.71,0,1.28-.42,1.69-1.27.41-.85.83-1.91,1.24-3.2s.87-2.68,1.36-4.2c.5-1.51,1.21-2.92,2.15-4.2.93-1.28,2.13-2.35,3.59-3.19,1.46-.85,3.34-1.27,5.66-1.27s4.11.45,5.57,1.35c1.46.9,2.64,2.02,3.55,3.35.91,1.34,1.61,2.78,2.11,4.32.5,1.54.94,2.98,1.32,4.32.38,1.34.77,2.45,1.15,3.35.39.9.91,1.35,1.57,1.35.71,0,1.22-.44,1.53-1.31.3-.87.59-1.96.87-3.27.27-1.31.6-2.74.99-4.28.38-1.54,1.02-2.96,1.9-4.28.88-1.31,2.05-2.4,3.51-3.27,1.46-.87,3.4-1.31,5.82-1.31s4.28.57,5.9,1.7Z"/>
    <path class="cls-1" d="M134.67,16.25c3.74,1.21,7.09,3.02,10.03,5.43,2.94,2.41,5.33,5.43,7.14,9.05,1.82,3.62,2.72,7.85,2.72,12.67,0,4.26-.78,8.17-2.35,11.71s-3.73,6.59-6.48,9.13-6.03,4.53-9.83,5.97c-3.8,1.44-7.93,2.16-12.39,2.16s-8.73-.69-12.64-2.08-7.31-3.34-10.2-5.86c-2.89-2.52-5.16-5.54-6.81-9.05s-2.48-7.41-2.48-11.67.8-8.44,2.39-12.06c1.6-3.62,3.81-6.7,6.65-9.25,2.84-2.54,6.21-4.51,10.12-5.89,3.91-1.39,8.15-2.08,12.72-2.08,3.85,0,7.65.6,11.4,1.81ZM118.23,32.62c-1.43.57-2.66,1.36-3.68,2.39s-1.8,2.23-2.35,3.62c-.55,1.39-.83,2.9-.83,4.55,0,1.85.3,3.51.91,4.97.6,1.46,1.45,2.7,2.52,3.7,1.07,1,2.33,1.77,3.76,2.31s2.94.81,4.54.81,3.18-.27,4.58-.81c1.41-.54,2.62-1.31,3.63-2.31,1.02-1,1.83-2.21,2.44-3.62.6-1.41.91-2.97.91-4.66s-.28-3.26-.83-4.7c-.55-1.43-1.32-2.68-2.31-3.74-.99-1.05-2.21-1.88-3.67-2.47-1.46-.59-3.1-.88-4.91-.88-1.71,0-3.28.28-4.71.85Z"/>
    <path class="cls-1" d="M193.8,16.25c3.74,1.21,7.09,3.02,10.03,5.43,2.94,2.41,5.33,5.43,7.14,9.05,1.82,3.62,2.72,7.85,2.72,12.67,0,4.26-.78,8.17-2.35,11.71-1.57,3.54-3.73,6.59-6.48,9.13s-6.03,4.53-9.83,5.97-7.93,2.16-12.39,2.16-8.73-.69-12.64-2.08-7.31-3.34-10.2-5.86c-2.89-2.52-5.16-5.54-6.81-9.05s-2.48-7.41-2.48-11.67.8-8.44,2.39-12.06c1.6-3.62,3.81-6.7,6.65-9.25,2.84-2.54,6.21-4.51,10.12-5.89,3.91-1.39,8.15-2.08,12.72-2.08,3.85,0,7.65.6,11.4,1.81ZM177.36,32.62c-1.43.57-2.66,1.36-3.68,2.39s-1.8,2.23-2.35,3.62c-.55,1.39-.83,2.9-.83,4.55,0,1.85.3,3.51.91,4.97.6,1.46,1.45,2.7,2.52,3.7,1.07,1,2.33,1.77,3.76,2.31s2.94.81,4.54.81,3.18-.27,4.58-.81c1.41-.54,2.62-1.31,3.63-2.31,1.02-1,1.83-2.21,2.44-3.62.6-1.41.91-2.97.91-4.66s-.28-3.26-.83-4.7c-.55-1.43-1.32-2.68-2.31-3.74-.99-1.05-2.21-1.88-3.67-2.47-1.46-.59-3.1-.88-4.91-.88-1.71,0-3.28.28-4.71.85Z"/>
    <path class="cls-1" d="M249.58,16.56c1.35.49,2.45,1.13,3.3,1.93.85.8,1.47,1.71,1.86,2.74.38,1.03.58,2.08.58,3.16,0,3.19-1.06,5.47-3.18,6.86-2.12,1.39-5.47,2.08-10.03,2.08-1.43,0-2.59.03-3.47.08-.88.05-1.56.12-2.02.19-.47.08-.77.17-.91.27-.14.1-.21.2-.21.31,0,.67,1.1,1,3.3,1,1.98,0,3.87.1,5.66.31s3.34.6,4.67,1.19c1.32.59,2.38,1.43,3.18,2.5.8,1.08,1.2,2.52,1.2,4.32s-.29,3.36-.87,4.54c-.58,1.18-1.36,2.11-2.36,2.78-.99.67-2.13,1.13-3.42,1.39-1.3.26-2.66.38-4.09.38-1.98,0-3.85.05-5.61.15-1.76.1-2.89.39-3.39.85-.33.31-.6.96-.83,1.96-.22,1-.33,2.09-.33,3.27,0,4.06-.68,7.13-2.02,9.21s-3.84,3.12-7.47,3.12c-1.98,0-3.61-.28-4.87-.85-1.27-.57-2.27-1.38-3.02-2.43-.74-1.05-1.25-2.32-1.53-3.81-.28-1.49-.41-3.18-.41-5.08v-30.9c0-2.05.18-3.85.54-5.39.36-1.54.96-2.82,1.82-3.85.85-1.03,1.99-1.78,3.42-2.27s3.22-.73,5.37-.73h20.31c1.87,0,3.48.24,4.83.73Z"/>
  </g>
  <path class="cls-2" d="M267.49,17.92c0-1.07.93-1.94,2.08-1.94h21.79c14.05,0,24.63,9.54,24.63,27.69s-10.58,27.53-24.63,27.53h-21.79c-1.15,0-2.08-.87-2.08-1.94V17.92ZM289.62,57c7.65,0,10.99-5.21,10.99-13.41s-3.34-13.41-11.55-13.41h-.55c-2.81,0-5.09,2.13-5.09,4.75v17.32c0,2.62,2.28,4.75,5.09,4.75h1.1Z"/>
  <path class="cls-2" d="M366.85,71.93c.22.5-.07,1.08-.66,1.08h-14.41c-.66,0-1.24-.42-1.53-1.08l-1.74-6.98c-.26-1.03-1.23-1.76-2.35-1.76h-9.16c-1.54,0-2.87,1-3.22,2.42l-1.58,6.33c-.29.67-.87,1.08-1.53,1.08h-14.41c-.58,0-.87-.58-.66-1.08l16.45-55.28c.22-.5,1.02-1.08,1.75-1.08h14.85c.73,0,1.53.58,1.75,1.08l16.45,55.28ZM340.46,38.58l-2.93,11.78c-.12.47.26.93.77.93h5.85c.51,0,.89-.45.77-.93l-2.93-11.78c-.19-.77-1.36-.77-1.55,0Z"/>
  <path class="cls-2" d="M404.91,14.81c.66,0,1.16.59.8,1.35l-15.66,32.7c-.28.58-.42,1.21-.42,1.85v21.14c0,.59-.51,1.18-1.09,1.18h-12.81c-.58,0-1.09-.59-1.09-1.18v-21.26c0-.55-.12-1.1-.37-1.6l-15.72-32.81c-.36-.76.15-1.35.8-1.35h15.14c.73,0,1.38.59,1.67,1.35l4.7,11.97c.44,1.11,2.09,1.11,2.53,0l4.71-11.97c.29-.76.95-1.35,1.67-1.35h15.14Z"/>
</svg>