<?xml version="1.0" encoding="UTF-8"?>
<svg id="Calque_2" data-name="Calque 2" xmlns="http://www.w3.org/2000/svg" viewBox="0 0 296.37 195.98">
  <defs>
    <style>
      .cls-1 {
        fill: #de6c49;
      }
    </style>
  </defs>
  <path class="cls-1" d="M132.07,88.18c-20.92-8.71-43.27-13.98-65.42-18.51-10.22-2.09-19.85-7.78-29.9-1.54-10.8,6.7-12.96,19.96-14.47,31.49-2.71,20.65.57,40.39,14.23,56.73,12.91,15.45,33.16,23.15,52.9,23.92,25.33.99,57.33-3.1,70.44-28.02,5.99-11.38-11.27-21.5-17.27-10.09-8.87,16.86-30.8,17.86-47.59,18.14-14.9.25-29.75-3.65-40.33-13.79-10.72-10.28-14.72-24.46-13.29-39.59.7-7.37,1.67-15.3,5.38-21.3.24-.39.71-.64,1.13-.85-.48.24-1.4.12-.35.3.12.02,1.99.48,3.43.94,4.27,1.36,8.43,2.55,12.83,3.45,21.31,4.35,42.84,9.64,62.96,18.01,4.99,2.08,11-2.24,12.3-6.98,1.58-5.76-1.98-10.22-6.98-12.3h0Z"/>
  <path class="cls-1" d="M95.56,79.77c11.72-23.77,34.25-40.7,59.94-46.69,28.58-6.66,56.32,5.74,75.36,27.15,2.92,3.29,4.82,6.8,6.23,11.69,1.58,5.49,2.28,10.66,2.66,16.25.82,11.98.17,23.99-.28,35.97-.18,4.69.22,9.99-.61,14.35-.96,5-2.45,7.63-6.01,10.79-2.68,2.37-7.05,4.07-11.6,5.07s-9.76,1.13-15.13.75c-3.22-.22-5.11-.5-8.33-1.18-1.34-.28-2.66-.61-3.98-.97-.61-.17-1.25-.37-1.84-.61,1.05.42.81-.03.15,0-1.4.06.01-.61.33.4-.33-1.02.02.08.35.66-.73-1.3.69,2-.17-.41-.18-.51-.23-1.93.03.59-.05-.52-.11-1.04-.11-1.56,0-1.21-.06-2.41-.07-3.62-.09-17.83-.47-35.51.2-53.35.48-12.87-19.52-12.85-20,0-.67,18-.32,35.84-.2,53.83.04,5.29.42,10.57,3.41,15.09,3.57,5.39,9.88,7.77,15.94,9.1,26.24,5.79,61.91,0,66.73-31.78.97-6.41.74-12.96,1-19.42.28-6.97.58-13.95.58-20.93,0-14.59-.99-29.83-7.15-43.27-6.47-14.11-21.51-25.66-34.54-33.32-15.27-8.98-33.31-14.4-51.12-13.17-36.89,2.55-72.59,25.08-89.06,58.48-2.39,4.84-1.3,10.82,3.59,13.68,4.41,2.58,11.28,1.28,13.68-3.59h0Z"/>
  <path class="cls-1" d="M39.39,96.8c.35.43.65.88.9,1.37.44.79.36.63-.22-.5l.25,1.07-.21-1.12c-.08,1.31-.04,1.51.1.62.18-.9.14-.69-.13.63-.08.28-1.02,3.18-.49,1.87.49-1.21-.99,1.7-.97,1.67-1.04,1.88.33-.16-.53.64-1.83,1.7-.39.52-.43.46l-.92.51c.72-.51,1.53-.71,2.41-.62-6.74.78-12.57,5.22-12.57,12.57,0,6.19,5.78,13.36,12.57,12.57,10.03-1.16,18.21-6.8,22.57-16.06s5.3-19.98-.63-28.37c-3.91-5.54-10.98-8.15-17.2-4.51-5.47,3.2-8.45,11.63-4.51,17.2h0Z"/>
  <path class="cls-1" d="M140.11,78.92c10.78,0,10.8-16.76,0-16.76s-10.8,16.76,0,16.76h0Z"/>
  <path class="cls-1" d="M122.32,73.46c5.39,0,5.4-8.38,0-8.38s-5.4,8.38,0,8.38h0Z"/>
</svg>