<?xml version="1.0" encoding="UTF-8"?>
<svg id="Calque_2" data-name="Calque 2" xmlns="http://www.w3.org/2000/svg" viewBox="0 0 284.41 200.76">
  <defs>
    <style>
      .cls-1 {
        fill: #69322d;
      }
    </style>
  </defs>
  <path class="cls-1" d="M128.36,95.57c-20.16-8.38-41.68-13.46-63.02-17.83-10.22-2.09-19.59-7.62-29.54-1.17s-12.34,19.54-13.81,30.81c-2.6,19.98.83,39.17,14.16,54.85,12.37,14.55,31.43,21.85,50.16,22.79,24.73,1.24,56.22-2.86,69.04-27.15,6-11.38-11.25-21.5-17.27-10.09-8.61,16.33-30.02,17.1-46.25,17.32-14.01.19-28.01-3.71-37.9-13.16-10.25-9.8-14.11-23.37-12.76-37.85.6-6.39.9-15.6,5.14-20.44,1.16-1.32,1.51-.33.34-.39-1.47-.06.81.16,1.19.27.78.21,1.55.46,2.33.71,4.11,1.3,8.1,2.42,12.33,3.29,20.49,4.19,41.18,9.29,60.53,17.33,4.99,2.07,11-2.24,12.3-6.98,1.58-5.76-1.98-10.22-6.98-12.3h0Z"/>
  <path class="cls-1" d="M93.38,87.99c11.3-22.89,32.99-39.17,57.76-44.89,27.32-6.31,53.84,5.62,72.05,26.05,2.8,3.14,4.71,6.74,6.03,11.35,1.52,5.3,2.19,10.41,2.54,15.84.76,11.63.1,23.28-.32,34.91-.17,4.6.23,9.68-.74,13.9-1.04,4.48-2.57,7.1-6.08,9.9.9-.72-1.09.7-1.39.88-1.06.65-2.17,1.25-3.3,1.75-.66.29-4.04,1.31-6.03,1.74-4.14.89-9.36,1.02-14.49.64-2.99-.22-4.65-.47-7.67-1.11-1.48-.31-2.93-.73-4.39-1.11-.44-.12-.91-.28-1.33-.46,1,.41.93-.01.21,0-.83.01-.81-1.73.4.39-.63-1.11.13.25.41.65-.93-1.3.93,1.93,0-.14-.76-1.69-.11,1.23-.07-.95.02-1.04-.05-2.08-.06-3.12-.1-17.27-.45-34.38.19-51.66.48-12.87-19.52-12.85-20,0-.65,17.44-.36,34.71-.19,52.14.05,4.95.4,10.06,3.2,14.32,3.53,5.37,9.66,7.77,15.69,9.11,24.74,5.48,59.2.44,64.59-29.46,1.17-6.48.91-13.11,1.17-19.67.26-6.58.55-13.16.58-19.74.06-14.34-.82-29.29-6.77-42.54-6.09-13.55-20.29-24.62-32.69-32.09-14.72-8.87-32.21-14.32-49.51-13.33-35.98,2.07-70.99,24.1-87.03,56.61-2.39,4.84-1.3,10.82,3.59,13.68,4.41,2.58,11.28,1.28,13.68-3.59h0Z"/>
  <path class="cls-1" d="M131.52,88.41c11.51,0,11.53-17.9,0-17.9s-11.53,17.9,0,17.9h0Z"/>
  <path class="cls-1" d="M114.36,84.21c7.68,0,7.69-11.93,0-11.93s-7.69,11.93,0,11.93h0Z"/>
  <path class="cls-1" d="M41.66,102.62c1.59,2.25,1.63,3.57.36,6.62-.49,1.18-1.33,2.45-2.1,3.25s-2.36,1.39-1.23,1.26c-4.8.56-8.95,3.71-8.95,8.95,0,4.41,4.12,9.51,8.95,8.95,16.5-1.91,28.71-23.5,18.42-38.06-2.79-3.94-7.82-5.8-12.24-3.21-3.9,2.28-6.01,8.28-3.21,12.24h0Z"/>
</svg>