<?xml version="1.0" encoding="UTF-8"?>
<svg id="Calque_2" data-name="Calque 2" xmlns="http://www.w3.org/2000/svg" viewBox="0 0 289.2 203.15">
  <defs>
    <style>
      .cls-1 {
        fill: #91acda;
      }
    </style>
  </defs>
  <path class="cls-1" d="M136.08,94.54c-19.59-8.14-40.5-13.08-61.23-17.33-9.77-2-18.78-7.27-28.44-1.49-10.52,6.29-12.6,19.28-14.05,30.34-2.55,19.55.74,38.31,13.76,53.68,12.18,14.37,31.08,21.54,49.56,22.33,24.03,1.02,54.35-2.96,66.8-26.56,6-11.38-11.25-21.5-17.27-10.09-8.31,15.76-29.02,16.49-44.67,16.7-13.55.18-27.07-3.54-36.65-12.68s-13.64-22.53-12.36-36.55c.61-6.66,1.2-14.24,4.95-19.81,1.02-1.52,1.31.07-.44-.35,1.52.36,2.99.78,4.48,1.26,3.82,1.25,7.56,2.22,11.49,3.02,19.89,4.07,39.97,9.02,58.75,16.83,4.99,2.07,11-2.24,12.3-6.98,1.58-5.75-1.98-10.22-6.98-12.3h0Z"/>
  <path class="cls-1" d="M101.89,89.24c10.32-22.1,30.49-38.36,54.01-44.59,26.6-7.04,52.78,3.5,71.17,23.2,2.71,2.9,4.75,6.19,6.1,10.49,1.55,4.91,2.42,9.88,2.88,14.85,1.04,11.3.68,22.65.5,33.98-.07,4.28.38,9.29-.19,13.2-.69,4.74-2.33,7.37-5.12,10.08-1.17,1.13-2.29,1.8-4.51,2.95-1.08.56-3.22,1.31-5.41,1.88-4.88,1.26-9.02,1.45-14.49,1.19-2.81-.13-4.7-.32-7.12-.75-1.53-.27-3.05-.61-4.55-1-.46-.12-.91-.28-1.36-.42-.82-.26.6-.16.13.06-.1.05-.83-.46-.92-.53.39.31,1.39,1.28.59.34-.05-.06,1.32,1.72.72.82-.67-1.01.94,2.09.23.4-.53-1.28-.02,1.75-.11-.56-.04-1.02-.11-2.05-.14-3.07-.49-16.86-1.17-33.56-.9-50.45.2-12.87-19.8-12.88-20,0-.27,17.04.35,33.9.91,50.91.19,5.6.85,11.29,4.76,15.62,3.63,4.02,8.85,5.88,14.05,6.92,24.95,4.98,58.4-.97,62.82-30.97.92-6.25.54-12.61.66-18.91s.25-12.65.13-18.98c-.27-13.77-1.45-28.06-7.33-40.7-6.2-13.31-20.53-24-32.96-31.05-14.63-8.3-31.89-13.28-48.8-11.76-34.76,3.13-68.11,24.81-83.02,56.74-2.28,4.89-1.37,10.78,3.59,13.68,4.33,2.53,11.39,1.33,13.68-3.59h0Z"/>
  <path class="cls-1" d="M49.06,103.22c.33.4.61.83.84,1.29.41.74.34.59-.21-.47l.24,1-.19-1.05c-.07,1.22-.04,1.42.1.58.17-.85.13-.65-.12.59-.07.26-.96,2.98-.46,1.75.46-1.13-.93,1.59-.91,1.57-.97,1.76.31-.15-.49.6-1.71,1.6-.36.49-.41.43l-.87.48c.68-.47,1.43-.67,2.26-.59-6.32.73-11.78,4.89-11.78,11.78,0,5.8,5.42,12.52,11.78,11.78,9.4-1.09,17.06-6.37,21.15-15.05s4.97-18.72-.59-26.58c-3.67-5.19-10.29-7.63-16.12-4.23-5.13,3-7.92,10.89-4.23,16.12h0Z"/>
  <path class="cls-1" d="M143.91,88.26c10.11,0,10.12-15.71,0-15.71s-10.12,15.71,0,15.71h0Z"/>
  <path class="cls-1" d="M127.23,83.14c5.05,0,5.06-7.85,0-7.85s-5.06,7.85,0,7.85h0Z"/>
</svg>