<?xml version="1.0" encoding="UTF-8"?>
<svg id="Calque_2" data-name="Calque 2" xmlns="http://www.w3.org/2000/svg" viewBox="0 0 310.71 212.71">
  <defs>
    <style>
      .cls-1 {
        fill: #26422b;
      }
    </style>
  </defs>
  <path class="cls-1" d="M139.1,99.29c-21.47-8.94-44.41-14.36-67.14-18.99-10.39-2.12-20.45-8.14-30.6-1.5-10.81,7.07-13.03,20.16-14.57,31.98-2.76,21.15.56,41.38,14.58,58.09,13.1,15.61,33.48,23.43,53.45,24.36,25.98,1.21,59.18-2.99,72.62-28.59,5.98-11.39-11.28-21.51-17.27-10.09-9.13,17.39-31.73,18.45-49.04,18.74-15.37.25-30.67-3.76-41.59-14.26-11.06-10.62-15.16-25.28-13.67-40.83.66-6.87.85-17.53,6.06-22.4,1.55-1.45.11-.08.2-.21-.33.49-1.86-1,.41,0-1.44-.63.66.15,1.06.26.95.26,1.88.55,2.81.85,4.22,1.37,8.34,2.5,12.69,3.39,21.89,4.46,44,9.9,64.67,18.5,4.99,2.08,11-2.24,12.3-6.98,1.58-5.76-1.98-10.22-6.98-12.3h0Z"/>
  <path class="cls-1" d="M101.48,90.28c12.07-24.5,35.35-41.94,61.84-48.06,29.38-6.79,57.86,6.02,77.42,28.01,3.01,3.39,5.07,7.3,6.52,12.4,1.62,5.74,2.32,11.25,2.7,17.16.78,12.28.09,24.58-.36,36.86-.18,4.99.28,10.42-.83,15.05s-2.84,7.69-6.65,10.75c-.9.72-.23.15-.05.02-.57.4-1.17.78-1.77,1.14-.91.55-1.85,1.06-2.82,1.51-1.24.58-4.5,1.59-7.03,2.13-4.48.96-9.62,1.1-15.03.74-3.11-.21-5.01-.45-8.23-1.1-1.56-.31-3.1-.68-4.63-1.11-.61-.17-1.26-.37-1.86-.6.77.3.99.45.11,0-.33-.17-.84-.62-1.21-.75.41.14,1.53,1.24.61.29.47.48,1.33,1.88.93,1.21-.14-.24-.25-.98-.28-1.3.07.76.07,1.73.12.44s-.09-2.67-.09-3.99c-.1-18.38-.48-36.6.2-54.99.48-12.87-19.52-12.85-20,0-.69,18.55-.37,36.93-.2,55.48.05,6.03.64,12.11,4.8,16.83,3.81,4.32,9.41,6.29,14.9,7.5,26.15,5.76,62.56.4,67.95-31.33,1.16-6.85.89-13.85,1.17-20.77s.59-14.06.6-21.1c.03-14.95-.87-30.64-7.12-44.43-6.56-14.48-21.65-26.21-34.95-34.15-15.52-9.27-33.92-14.94-52.11-13.86-38.02,2.26-74.98,25.54-91.92,59.91-2.39,4.84-1.3,10.82,3.59,13.68,4.41,2.58,11.28,1.28,13.68-3.59h0Z"/>
  <path class="cls-1" d="M44.09,107.88c.34.42.64.88.9,1.36.45.82.37.62-.24-.61l.26,1.06c-.16-1.43-.22-1.65-.18-.68-.04,1.22-.34,2.31.07.55-.27,1.13-.54,2.3-1,3.38.73-1.7-.07-.17-.55.6-.51.76-.4.67.33-.26l-.75.85c-.97.87-1.08,1.03-.33.47.75-.52.61-.43-.43.26-1.96,1.14.75-.1,1.68-.21-6.92.79-12.9,5.36-12.9,12.9,0,6.36,5.93,13.69,12.9,12.9,10.3-1.17,18.66-6.98,23.17-16.47s5.43-20.53-.65-29.11c-4.02-5.67-11.26-8.36-17.64-4.63-5.61,3.28-8.68,11.93-4.63,17.64h0Z"/>
  <path class="cls-1" d="M154.5,90.19c11.06,0,11.08-17.19,0-17.19s-11.08,17.19,0,17.19h0Z"/>
  <path class="cls-1" d="M136.24,84.58c5.53,0,5.54-8.6,0-8.6s-5.54,8.6,0,8.6h0Z"/>
</svg>